<mxfile host="drawio-plugin" modified="2022-07-24T06:18:58.467Z" agent="5.0 (Macintosh; Intel Mac OS X 10_15_7) AppleWebKit/537.36 (KHTML, like Gecko) Chrome/97.0.4692.45 Safari/537.36" etag="o2Lgvo5C8FXEixgvsRGv" version="15.5.4" type="embed"><diagram id="R2lEEEUBdFMjLlhIrx00" name="Page-1"><mxGraphModel dx="1644" dy="1821" grid="1" gridSize="10" guides="1" tooltips="1" connect="1" arrows="1" fold="1" page="1" pageScale="1" pageWidth="850" pageHeight="1100" math="0" shadow="0" extFonts="Permanent Marker^https://fonts.googleapis.com/css?family=Permanent+Marker"><root><mxCell id="0"/><mxCell id="1" parent="0"/><mxCell id="C-vyLk0tnHw3VtMMgP7b-1" value="" style="edgeStyle=entityRelationEdgeStyle;endArrow=ERoneToMany;startArrow=ERone;endFill=0;startFill=0;" parent="1" source="C-vyLk0tnHw3VtMMgP7b-24" target="C-vyLk0tnHw3VtMMgP7b-2" edge="1"><mxGeometry width="100" height="100" relative="1" as="geometry"><mxPoint x="240" y="-30" as="sourcePoint"/><mxPoint x="380" y="-585" as="targetPoint"/></mxGeometry></mxCell><mxCell id="C-vyLk0tnHw3VtMMgP7b-2" value="task_category" style="shape=table;startSize=30;container=1;collapsible=1;childLayout=tableLayout;fixedRows=1;rowLines=0;fontStyle=1;align=center;resizeLast=1;flipV=0;fillColor=#fff2cc;strokeColor=#d6b656;" parent="1" vertex="1"><mxGeometry x="540" y="-630" width="250" height="70" as="geometry"/></mxCell><mxCell id="C-vyLk0tnHw3VtMMgP7b-3" value="" style="shape=partialRectangle;collapsible=0;dropTarget=0;pointerEvents=0;points=[[0,0.5],[1,0.5]];portConstraint=eastwest;top=0;left=0;right=0;bottom=1;" parent="C-vyLk0tnHw3VtMMgP7b-2" vertex="1"><mxGeometry y="30" width="250" height="30" as="geometry"/></mxCell><mxCell id="C-vyLk0tnHw3VtMMgP7b-4" value="PK" style="shape=partialRectangle;overflow=hidden;connectable=0;top=0;left=0;bottom=0;right=0;fontStyle=1;" parent="C-vyLk0tnHw3VtMMgP7b-3" vertex="1"><mxGeometry width="30" height="30" as="geometry"><mxRectangle width="30" height="30" as="alternateBounds"/></mxGeometry></mxCell><mxCell id="C-vyLk0tnHw3VtMMgP7b-5" value="task_id BIGINT NOT NULL&#10;category_id INT NOT NULL" style="shape=partialRectangle;overflow=hidden;connectable=0;top=0;left=0;bottom=0;right=0;align=left;spacingLeft=6;fontStyle=1;" parent="C-vyLk0tnHw3VtMMgP7b-3" vertex="1"><mxGeometry x="30" width="220" height="30" as="geometry"><mxRectangle width="220" height="30" as="alternateBounds"/></mxGeometry></mxCell><mxCell id="C-vyLk0tnHw3VtMMgP7b-23" value="task" style="shape=table;startSize=30;container=1;collapsible=1;childLayout=tableLayout;fixedRows=1;rowLines=0;fontStyle=1;align=center;resizeLast=1;flipV=0;flipH=0;fillColor=#fff2cc;strokeColor=#d6b656;" parent="1" vertex="1"><mxGeometry x="20" y="-630" width="430" height="420" as="geometry"/></mxCell><mxCell id="C-vyLk0tnHw3VtMMgP7b-24" value="" style="shape=partialRectangle;collapsible=0;dropTarget=0;pointerEvents=0;points=[[0,0.5],[1,0.5]];portConstraint=eastwest;top=0;left=0;right=0;bottom=1;" parent="C-vyLk0tnHw3VtMMgP7b-23" vertex="1"><mxGeometry y="30" width="430" height="30" as="geometry"/></mxCell><mxCell id="C-vyLk0tnHw3VtMMgP7b-25" value="PK" style="shape=partialRectangle;overflow=hidden;connectable=0;top=0;left=0;bottom=0;right=0;fontStyle=1;" parent="C-vyLk0tnHw3VtMMgP7b-24" vertex="1"><mxGeometry width="30" height="30" as="geometry"><mxRectangle width="30" height="30" as="alternateBounds"/></mxGeometry></mxCell><mxCell id="C-vyLk0tnHw3VtMMgP7b-26" value="task_id BIGINT NOT NULL AI" style="shape=partialRectangle;overflow=hidden;connectable=0;top=0;left=0;bottom=0;right=0;align=left;spacingLeft=6;fontStyle=1;" parent="C-vyLk0tnHw3VtMMgP7b-24" vertex="1"><mxGeometry x="30" width="400" height="30" as="geometry"><mxRectangle width="400" height="30" as="alternateBounds"/></mxGeometry></mxCell><mxCell id="j83zVd82UVNJNxqpEqZ9-1" value="" style="shape=partialRectangle;collapsible=0;dropTarget=0;pointerEvents=0;points=[[0,0.5],[1,0.5]];portConstraint=eastwest;top=0;left=0;right=0;bottom=0;" parent="C-vyLk0tnHw3VtMMgP7b-23" vertex="1"><mxGeometry y="60" width="430" height="30" as="geometry"/></mxCell><mxCell id="j83zVd82UVNJNxqpEqZ9-2" value="" style="shape=partialRectangle;overflow=hidden;connectable=0;top=0;left=0;bottom=0;right=0;" parent="j83zVd82UVNJNxqpEqZ9-1" vertex="1"><mxGeometry width="30" height="30" as="geometry"><mxRectangle width="30" height="30" as="alternateBounds"/></mxGeometry></mxCell><mxCell id="j83zVd82UVNJNxqpEqZ9-3" value="user_id BIGINT NOT NULL" style="shape=partialRectangle;overflow=hidden;connectable=0;top=0;left=0;bottom=0;right=0;align=left;spacingLeft=6;" parent="j83zVd82UVNJNxqpEqZ9-1" vertex="1"><mxGeometry x="30" width="400" height="30" as="geometry"><mxRectangle width="400" height="30" as="alternateBounds"/></mxGeometry></mxCell><mxCell id="C-vyLk0tnHw3VtMMgP7b-27" value="" style="shape=partialRectangle;collapsible=0;dropTarget=0;pointerEvents=0;points=[[0,0.5],[1,0.5]];portConstraint=eastwest;top=0;left=0;right=0;bottom=0;" parent="C-vyLk0tnHw3VtMMgP7b-23" vertex="1"><mxGeometry y="90" width="430" height="30" as="geometry"/></mxCell><mxCell id="C-vyLk0tnHw3VtMMgP7b-28" value="" style="shape=partialRectangle;overflow=hidden;connectable=0;top=0;left=0;bottom=0;right=0;" parent="C-vyLk0tnHw3VtMMgP7b-27" vertex="1"><mxGeometry width="30" height="30" as="geometry"><mxRectangle width="30" height="30" as="alternateBounds"/></mxGeometry></mxCell><mxCell id="C-vyLk0tnHw3VtMMgP7b-29" value="title VARCHAR(40) NOT NULL" style="shape=partialRectangle;overflow=hidden;connectable=0;top=0;left=0;bottom=0;right=0;align=left;spacingLeft=6;" parent="C-vyLk0tnHw3VtMMgP7b-27" vertex="1"><mxGeometry x="30" width="400" height="30" as="geometry"><mxRectangle width="400" height="30" as="alternateBounds"/></mxGeometry></mxCell><mxCell id="j83zVd82UVNJNxqpEqZ9-4" value="" style="shape=partialRectangle;collapsible=0;dropTarget=0;pointerEvents=0;points=[[0,0.5],[1,0.5]];portConstraint=eastwest;top=0;left=0;right=0;bottom=0;" parent="C-vyLk0tnHw3VtMMgP7b-23" vertex="1"><mxGeometry y="120" width="430" height="30" as="geometry"/></mxCell><mxCell id="j83zVd82UVNJNxqpEqZ9-5" value="" style="shape=partialRectangle;overflow=hidden;connectable=0;top=0;left=0;bottom=0;right=0;" parent="j83zVd82UVNJNxqpEqZ9-4" vertex="1"><mxGeometry width="30" height="30" as="geometry"><mxRectangle width="30" height="30" as="alternateBounds"/></mxGeometry></mxCell><mxCell id="j83zVd82UVNJNxqpEqZ9-6" value="content VARCHAR(1000) NOT NULL DEFAULT ''" style="shape=partialRectangle;overflow=hidden;connectable=0;top=0;left=0;bottom=0;right=0;align=left;spacingLeft=6;" parent="j83zVd82UVNJNxqpEqZ9-4" vertex="1"><mxGeometry x="30" width="400" height="30" as="geometry"><mxRectangle width="400" height="30" as="alternateBounds"/></mxGeometry></mxCell><mxCell id="j83zVd82UVNJNxqpEqZ9-7" value="" style="shape=partialRectangle;collapsible=0;dropTarget=0;pointerEvents=0;points=[[0,0.5],[1,0.5]];portConstraint=eastwest;top=0;left=0;right=0;bottom=0;" parent="C-vyLk0tnHw3VtMMgP7b-23" vertex="1"><mxGeometry y="150" width="430" height="30" as="geometry"/></mxCell><mxCell id="j83zVd82UVNJNxqpEqZ9-8" value="" style="shape=partialRectangle;overflow=hidden;connectable=0;top=0;left=0;bottom=0;right=0;" parent="j83zVd82UVNJNxqpEqZ9-7" vertex="1"><mxGeometry width="30" height="30" as="geometry"><mxRectangle width="30" height="30" as="alternateBounds"/></mxGeometry></mxCell><mxCell id="j83zVd82UVNJNxqpEqZ9-9" value="public_state TINYINT NOT NULL DEFAULT 1" style="shape=partialRectangle;overflow=hidden;connectable=0;top=0;left=0;bottom=0;right=0;align=left;spacingLeft=6;" parent="j83zVd82UVNJNxqpEqZ9-7" vertex="1"><mxGeometry x="30" width="400" height="30" as="geometry"><mxRectangle width="400" height="30" as="alternateBounds"/></mxGeometry></mxCell><mxCell id="j83zVd82UVNJNxqpEqZ9-10" value="" style="shape=partialRectangle;collapsible=0;dropTarget=0;pointerEvents=0;points=[[0,0.5],[1,0.5]];portConstraint=eastwest;top=0;left=0;right=0;bottom=0;" parent="C-vyLk0tnHw3VtMMgP7b-23" vertex="1"><mxGeometry y="180" width="430" height="30" as="geometry"/></mxCell><mxCell id="j83zVd82UVNJNxqpEqZ9-11" value="" style="shape=partialRectangle;overflow=hidden;connectable=0;top=0;left=0;bottom=0;right=0;" parent="j83zVd82UVNJNxqpEqZ9-10" vertex="1"><mxGeometry width="30" height="30" as="geometry"><mxRectangle width="30" height="30" as="alternateBounds"/></mxGeometry></mxCell><mxCell id="j83zVd82UVNJNxqpEqZ9-12" value="priority TINYINT NOT NULL DEFAULT 50 (L:25, M:50, H:75)" style="shape=partialRectangle;overflow=hidden;connectable=0;top=0;left=0;bottom=0;right=0;align=left;spacingLeft=6;" parent="j83zVd82UVNJNxqpEqZ9-10" vertex="1"><mxGeometry x="30" width="400" height="30" as="geometry"><mxRectangle width="400" height="30" as="alternateBounds"/></mxGeometry></mxCell><mxCell id="j83zVd82UVNJNxqpEqZ9-13" value="" style="shape=partialRectangle;collapsible=0;dropTarget=0;pointerEvents=0;points=[[0,0.5],[1,0.5]];portConstraint=eastwest;top=0;left=0;right=0;bottom=0;" parent="C-vyLk0tnHw3VtMMgP7b-23" vertex="1"><mxGeometry y="210" width="430" height="30" as="geometry"/></mxCell><mxCell id="j83zVd82UVNJNxqpEqZ9-14" value="" style="shape=partialRectangle;overflow=hidden;connectable=0;top=0;left=0;bottom=0;right=0;" parent="j83zVd82UVNJNxqpEqZ9-13" vertex="1"><mxGeometry width="30" height="30" as="geometry"><mxRectangle width="30" height="30" as="alternateBounds"/></mxGeometry></mxCell><mxCell id="j83zVd82UVNJNxqpEqZ9-15" value="pin CHAR(1) NOT NULL DEFAULT 'N'" style="shape=partialRectangle;overflow=hidden;connectable=0;top=0;left=0;bottom=0;right=0;align=left;spacingLeft=6;" parent="j83zVd82UVNJNxqpEqZ9-13" vertex="1"><mxGeometry x="30" width="400" height="30" as="geometry"><mxRectangle width="400" height="30" as="alternateBounds"/></mxGeometry></mxCell><mxCell id="j83zVd82UVNJNxqpEqZ9-19" value="" style="shape=partialRectangle;collapsible=0;dropTarget=0;pointerEvents=0;points=[[0,0.5],[1,0.5]];portConstraint=eastwest;top=0;left=0;right=0;bottom=0;" parent="C-vyLk0tnHw3VtMMgP7b-23" vertex="1"><mxGeometry y="240" width="430" height="30" as="geometry"/></mxCell><mxCell id="j83zVd82UVNJNxqpEqZ9-20" value="" style="shape=partialRectangle;overflow=hidden;connectable=0;top=0;left=0;bottom=0;right=0;" parent="j83zVd82UVNJNxqpEqZ9-19" vertex="1"><mxGeometry width="30" height="30" as="geometry"><mxRectangle width="30" height="30" as="alternateBounds"/></mxGeometry></mxCell><mxCell id="j83zVd82UVNJNxqpEqZ9-21" value="parent_task_id BIGINT" style="shape=partialRectangle;overflow=hidden;connectable=0;top=0;left=0;bottom=0;right=0;align=left;spacingLeft=6;" parent="j83zVd82UVNJNxqpEqZ9-19" vertex="1"><mxGeometry x="30" width="400" height="30" as="geometry"><mxRectangle width="400" height="30" as="alternateBounds"/></mxGeometry></mxCell><mxCell id="j83zVd82UVNJNxqpEqZ9-22" value="" style="shape=partialRectangle;collapsible=0;dropTarget=0;pointerEvents=0;points=[[0,0.5],[1,0.5]];portConstraint=eastwest;top=0;left=0;right=0;bottom=0;" parent="C-vyLk0tnHw3VtMMgP7b-23" vertex="1"><mxGeometry y="270" width="430" height="30" as="geometry"/></mxCell><mxCell id="j83zVd82UVNJNxqpEqZ9-23" value="" style="shape=partialRectangle;overflow=hidden;connectable=0;top=0;left=0;bottom=0;right=0;" parent="j83zVd82UVNJNxqpEqZ9-22" vertex="1"><mxGeometry width="30" height="30" as="geometry"><mxRectangle width="30" height="30" as="alternateBounds"/></mxGeometry></mxCell><mxCell id="j83zVd82UVNJNxqpEqZ9-24" value="status TINYINT NOT NULL DEFAULT 1" style="shape=partialRectangle;overflow=hidden;connectable=0;top=0;left=0;bottom=0;right=0;align=left;spacingLeft=6;" parent="j83zVd82UVNJNxqpEqZ9-22" vertex="1"><mxGeometry x="30" width="400" height="30" as="geometry"><mxRectangle width="400" height="30" as="alternateBounds"/></mxGeometry></mxCell><mxCell id="j83zVd82UVNJNxqpEqZ9-184" value="" style="shape=partialRectangle;collapsible=0;dropTarget=0;pointerEvents=0;points=[[0,0.5],[1,0.5]];portConstraint=eastwest;top=0;left=0;right=0;bottom=0;" parent="C-vyLk0tnHw3VtMMgP7b-23" vertex="1"><mxGeometry y="300" width="430" height="30" as="geometry"/></mxCell><mxCell id="j83zVd82UVNJNxqpEqZ9-185" value="" style="shape=partialRectangle;overflow=hidden;connectable=0;top=0;left=0;bottom=0;right=0;" parent="j83zVd82UVNJNxqpEqZ9-184" vertex="1"><mxGeometry width="30" height="30" as="geometry"><mxRectangle width="30" height="30" as="alternateBounds"/></mxGeometry></mxCell><mxCell id="j83zVd82UVNJNxqpEqZ9-186" value="deleted CHAR(1) NOT NULL DEFAULT 'N'" style="shape=partialRectangle;overflow=hidden;connectable=0;top=0;left=0;bottom=0;right=0;align=left;spacingLeft=6;" parent="j83zVd82UVNJNxqpEqZ9-184" vertex="1"><mxGeometry x="30" width="400" height="30" as="geometry"><mxRectangle width="400" height="30" as="alternateBounds"/></mxGeometry></mxCell><mxCell id="j83zVd82UVNJNxqpEqZ9-40" value="" style="shape=partialRectangle;collapsible=0;dropTarget=0;pointerEvents=0;points=[[0,0.5],[1,0.5]];portConstraint=eastwest;top=0;left=0;right=0;bottom=0;" parent="C-vyLk0tnHw3VtMMgP7b-23" vertex="1"><mxGeometry y="330" width="430" height="30" as="geometry"/></mxCell><mxCell id="j83zVd82UVNJNxqpEqZ9-41" value="" style="shape=partialRectangle;overflow=hidden;connectable=0;top=0;left=0;bottom=0;right=0;" parent="j83zVd82UVNJNxqpEqZ9-40" vertex="1"><mxGeometry width="30" height="30" as="geometry"><mxRectangle width="30" height="30" as="alternateBounds"/></mxGeometry></mxCell><mxCell id="j83zVd82UVNJNxqpEqZ9-42" value="created_at DATETIME NOT NULL DEFAULT CURRENT_TIMESTAMP" style="shape=partialRectangle;overflow=hidden;connectable=0;top=0;left=0;bottom=0;right=0;align=left;spacingLeft=6;" parent="j83zVd82UVNJNxqpEqZ9-40" vertex="1"><mxGeometry x="30" width="400" height="30" as="geometry"><mxRectangle width="400" height="30" as="alternateBounds"/></mxGeometry></mxCell><mxCell id="j83zVd82UVNJNxqpEqZ9-43" value="" style="shape=partialRectangle;collapsible=0;dropTarget=0;pointerEvents=0;points=[[0,0.5],[1,0.5]];portConstraint=eastwest;top=0;left=0;right=0;bottom=0;" parent="C-vyLk0tnHw3VtMMgP7b-23" vertex="1"><mxGeometry y="360" width="430" height="30" as="geometry"/></mxCell><mxCell id="j83zVd82UVNJNxqpEqZ9-44" value="" style="shape=partialRectangle;overflow=hidden;connectable=0;top=0;left=0;bottom=0;right=0;" parent="j83zVd82UVNJNxqpEqZ9-43" vertex="1"><mxGeometry width="30" height="30" as="geometry"><mxRectangle width="30" height="30" as="alternateBounds"/></mxGeometry></mxCell><mxCell id="j83zVd82UVNJNxqpEqZ9-45" value="modified_at DATETIME NOT NULL DEFAULT CURRENT_TIMESTAMP" style="shape=partialRectangle;overflow=hidden;connectable=0;top=0;left=0;bottom=0;right=0;align=left;spacingLeft=6;" parent="j83zVd82UVNJNxqpEqZ9-43" vertex="1"><mxGeometry x="30" width="400" height="30" as="geometry"><mxRectangle width="400" height="30" as="alternateBounds"/></mxGeometry></mxCell><mxCell id="3" value="" style="shape=partialRectangle;collapsible=0;dropTarget=0;pointerEvents=0;points=[[0,0.5],[1,0.5]];portConstraint=eastwest;top=0;left=0;right=0;bottom=0;" vertex="1" parent="C-vyLk0tnHw3VtMMgP7b-23"><mxGeometry y="390" width="430" height="30" as="geometry"/></mxCell><mxCell id="4" value="" style="shape=partialRectangle;overflow=hidden;connectable=0;top=0;left=0;bottom=0;right=0;" vertex="1" parent="3"><mxGeometry width="30" height="30" as="geometry"><mxRectangle width="30" height="30" as="alternateBounds"/></mxGeometry></mxCell><mxCell id="5" value="deleted_at DATETIME DEFAULT CURRENT_TIMESTAMP" style="shape=partialRectangle;overflow=hidden;connectable=0;top=0;left=0;bottom=0;right=0;align=left;spacingLeft=6;" vertex="1" parent="3"><mxGeometry x="30" width="400" height="30" as="geometry"><mxRectangle width="400" height="30" as="alternateBounds"/></mxGeometry></mxCell><mxCell id="j83zVd82UVNJNxqpEqZ9-93" value="category" style="shape=table;startSize=30;container=1;collapsible=1;childLayout=tableLayout;fixedRows=1;rowLines=0;fontStyle=1;align=center;resizeLast=1;flipV=0;fillColor=#f5f5f5;fontColor=#333333;strokeColor=#666666;" parent="1" vertex="1"><mxGeometry x="890" y="-630" width="430" height="210" as="geometry"/></mxCell><mxCell id="j83zVd82UVNJNxqpEqZ9-94" value="" style="shape=partialRectangle;collapsible=0;dropTarget=0;pointerEvents=0;points=[[0,0.5],[1,0.5]];portConstraint=eastwest;top=0;left=0;right=0;bottom=1;" parent="j83zVd82UVNJNxqpEqZ9-93" vertex="1"><mxGeometry y="30" width="430" height="30" as="geometry"/></mxCell><mxCell id="j83zVd82UVNJNxqpEqZ9-95" value="PK" style="shape=partialRectangle;overflow=hidden;connectable=0;top=0;left=0;bottom=0;right=0;fontStyle=1;" parent="j83zVd82UVNJNxqpEqZ9-94" vertex="1"><mxGeometry width="30" height="30" as="geometry"><mxRectangle width="30" height="30" as="alternateBounds"/></mxGeometry></mxCell><mxCell id="j83zVd82UVNJNxqpEqZ9-96" value="category_id INT NOT NULL AI" style="shape=partialRectangle;overflow=hidden;connectable=0;top=0;left=0;bottom=0;right=0;align=left;spacingLeft=6;fontStyle=1;" parent="j83zVd82UVNJNxqpEqZ9-94" vertex="1"><mxGeometry x="30" width="400" height="30" as="geometry"><mxRectangle width="400" height="30" as="alternateBounds"/></mxGeometry></mxCell><mxCell id="j83zVd82UVNJNxqpEqZ9-97" value="" style="shape=partialRectangle;collapsible=0;dropTarget=0;pointerEvents=0;points=[[0,0.5],[1,0.5]];portConstraint=eastwest;top=0;left=0;right=0;bottom=0;" parent="j83zVd82UVNJNxqpEqZ9-93" vertex="1"><mxGeometry y="60" width="430" height="30" as="geometry"/></mxCell><mxCell id="j83zVd82UVNJNxqpEqZ9-98" value="" style="shape=partialRectangle;overflow=hidden;connectable=0;top=0;left=0;bottom=0;right=0;" parent="j83zVd82UVNJNxqpEqZ9-97" vertex="1"><mxGeometry width="30" height="30" as="geometry"><mxRectangle width="30" height="30" as="alternateBounds"/></mxGeometry></mxCell><mxCell id="j83zVd82UVNJNxqpEqZ9-99" value="name VARCHAR(20) NOT NULL" style="shape=partialRectangle;overflow=hidden;connectable=0;top=0;left=0;bottom=0;right=0;align=left;spacingLeft=6;" parent="j83zVd82UVNJNxqpEqZ9-97" vertex="1"><mxGeometry x="30" width="400" height="30" as="geometry"><mxRectangle width="400" height="30" as="alternateBounds"/></mxGeometry></mxCell><mxCell id="j83zVd82UVNJNxqpEqZ9-107" value="" style="shape=partialRectangle;collapsible=0;dropTarget=0;pointerEvents=0;points=[[0,0.5],[1,0.5]];portConstraint=eastwest;top=0;left=0;right=0;bottom=0;" parent="j83zVd82UVNJNxqpEqZ9-93" vertex="1"><mxGeometry y="90" width="430" height="30" as="geometry"/></mxCell><mxCell id="j83zVd82UVNJNxqpEqZ9-108" value="" style="shape=partialRectangle;overflow=hidden;connectable=0;top=0;left=0;bottom=0;right=0;" parent="j83zVd82UVNJNxqpEqZ9-107" vertex="1"><mxGeometry width="30" height="30" as="geometry"><mxRectangle width="30" height="30" as="alternateBounds"/></mxGeometry></mxCell><mxCell id="j83zVd82UVNJNxqpEqZ9-109" value="parent_category_id INT" style="shape=partialRectangle;overflow=hidden;connectable=0;top=0;left=0;bottom=0;right=0;align=left;spacingLeft=6;" parent="j83zVd82UVNJNxqpEqZ9-107" vertex="1"><mxGeometry x="30" width="400" height="30" as="geometry"><mxRectangle width="400" height="30" as="alternateBounds"/></mxGeometry></mxCell><mxCell id="j83zVd82UVNJNxqpEqZ9-116" value="" style="shape=partialRectangle;collapsible=0;dropTarget=0;pointerEvents=0;points=[[0,0.5],[1,0.5]];portConstraint=eastwest;top=0;left=0;right=0;bottom=0;" parent="j83zVd82UVNJNxqpEqZ9-93" vertex="1"><mxGeometry y="120" width="430" height="30" as="geometry"/></mxCell><mxCell id="j83zVd82UVNJNxqpEqZ9-117" value="" style="shape=partialRectangle;overflow=hidden;connectable=0;top=0;left=0;bottom=0;right=0;" parent="j83zVd82UVNJNxqpEqZ9-116" vertex="1"><mxGeometry width="30" height="30" as="geometry"><mxRectangle width="30" height="30" as="alternateBounds"/></mxGeometry></mxCell><mxCell id="j83zVd82UVNJNxqpEqZ9-118" value="depth TINYINT NOT NULL DEFAULT 1" style="shape=partialRectangle;overflow=hidden;connectable=0;top=0;left=0;bottom=0;right=0;align=left;spacingLeft=6;" parent="j83zVd82UVNJNxqpEqZ9-116" vertex="1"><mxGeometry x="30" width="400" height="30" as="geometry"><mxRectangle width="400" height="30" as="alternateBounds"/></mxGeometry></mxCell><mxCell id="j83zVd82UVNJNxqpEqZ9-113" value="" style="shape=partialRectangle;collapsible=0;dropTarget=0;pointerEvents=0;points=[[0,0.5],[1,0.5]];portConstraint=eastwest;top=0;left=0;right=0;bottom=0;" parent="j83zVd82UVNJNxqpEqZ9-93" vertex="1"><mxGeometry y="150" width="430" height="30" as="geometry"/></mxCell><mxCell id="j83zVd82UVNJNxqpEqZ9-114" value="" style="shape=partialRectangle;overflow=hidden;connectable=0;top=0;left=0;bottom=0;right=0;" parent="j83zVd82UVNJNxqpEqZ9-113" vertex="1"><mxGeometry width="30" height="30" as="geometry"><mxRectangle width="30" height="30" as="alternateBounds"/></mxGeometry></mxCell><mxCell id="j83zVd82UVNJNxqpEqZ9-115" value="created_at DATETIME NOT NULL DEFAULT CURRENT_TIMESTAMP" style="shape=partialRectangle;overflow=hidden;connectable=0;top=0;left=0;bottom=0;right=0;align=left;spacingLeft=6;" parent="j83zVd82UVNJNxqpEqZ9-113" vertex="1"><mxGeometry x="30" width="400" height="30" as="geometry"><mxRectangle width="400" height="30" as="alternateBounds"/></mxGeometry></mxCell><mxCell id="j83zVd82UVNJNxqpEqZ9-110" value="" style="shape=partialRectangle;collapsible=0;dropTarget=0;pointerEvents=0;points=[[0,0.5],[1,0.5]];portConstraint=eastwest;top=0;left=0;right=0;bottom=0;" parent="j83zVd82UVNJNxqpEqZ9-93" vertex="1"><mxGeometry y="180" width="430" height="30" as="geometry"/></mxCell><mxCell id="j83zVd82UVNJNxqpEqZ9-111" value="" style="shape=partialRectangle;overflow=hidden;connectable=0;top=0;left=0;bottom=0;right=0;" parent="j83zVd82UVNJNxqpEqZ9-110" vertex="1"><mxGeometry width="30" height="30" as="geometry"><mxRectangle width="30" height="30" as="alternateBounds"/></mxGeometry></mxCell><mxCell id="j83zVd82UVNJNxqpEqZ9-112" value="modified_at DATETIME NOT NULL DEFAULT CURRENT_TIMESTAMP" style="shape=partialRectangle;overflow=hidden;connectable=0;top=0;left=0;bottom=0;right=0;align=left;spacingLeft=6;" parent="j83zVd82UVNJNxqpEqZ9-110" vertex="1"><mxGeometry x="30" width="400" height="30" as="geometry"><mxRectangle width="400" height="30" as="alternateBounds"/></mxGeometry></mxCell><mxCell id="j83zVd82UVNJNxqpEqZ9-103" value="" style="edgeStyle=entityRelationEdgeStyle;endArrow=ERone;startArrow=ERoneToMany;endFill=0;startFill=0;" parent="1" source="C-vyLk0tnHw3VtMMgP7b-2" target="j83zVd82UVNJNxqpEqZ9-93" edge="1"><mxGeometry width="100" height="100" relative="1" as="geometry"><mxPoint x="640" y="-595.25" as="sourcePoint"/><mxPoint x="700" y="-595.25" as="targetPoint"/></mxGeometry></mxCell><mxCell id="j83zVd82UVNJNxqpEqZ9-119" value="task_template" style="shape=table;startSize=30;container=1;collapsible=1;childLayout=tableLayout;fixedRows=1;rowLines=0;fontStyle=1;align=center;resizeLast=1;fillColor=#fff2cc;strokeColor=#d6b656;" parent="1" vertex="1"><mxGeometry x="10" y="-175" width="440" height="330" as="geometry"/></mxCell><mxCell id="j83zVd82UVNJNxqpEqZ9-120" value="" style="shape=partialRectangle;collapsible=0;dropTarget=0;pointerEvents=0;points=[[0,0.5],[1,0.5]];portConstraint=eastwest;top=0;left=0;right=0;bottom=1;" parent="j83zVd82UVNJNxqpEqZ9-119" vertex="1"><mxGeometry y="30" width="440" height="30" as="geometry"/></mxCell><mxCell id="j83zVd82UVNJNxqpEqZ9-121" value="PK" style="shape=partialRectangle;overflow=hidden;connectable=0;top=0;left=0;bottom=0;right=0;fontStyle=1;" parent="j83zVd82UVNJNxqpEqZ9-120" vertex="1"><mxGeometry width="30" height="30" as="geometry"><mxRectangle width="30" height="30" as="alternateBounds"/></mxGeometry></mxCell><mxCell id="j83zVd82UVNJNxqpEqZ9-122" value="task_template_id BIGINT NOT NULL AI" style="shape=partialRectangle;overflow=hidden;connectable=0;top=0;left=0;bottom=0;right=0;align=left;spacingLeft=6;fontStyle=1;" parent="j83zVd82UVNJNxqpEqZ9-120" vertex="1"><mxGeometry x="30" width="410" height="30" as="geometry"><mxRectangle width="410" height="30" as="alternateBounds"/></mxGeometry></mxCell><mxCell id="j83zVd82UVNJNxqpEqZ9-123" value="" style="shape=partialRectangle;collapsible=0;dropTarget=0;pointerEvents=0;points=[[0,0.5],[1,0.5]];portConstraint=eastwest;top=0;left=0;right=0;bottom=0;" parent="j83zVd82UVNJNxqpEqZ9-119" vertex="1"><mxGeometry y="60" width="440" height="30" as="geometry"/></mxCell><mxCell id="j83zVd82UVNJNxqpEqZ9-124" value="" style="shape=partialRectangle;overflow=hidden;connectable=0;top=0;left=0;bottom=0;right=0;" parent="j83zVd82UVNJNxqpEqZ9-123" vertex="1"><mxGeometry width="30" height="30" as="geometry"><mxRectangle width="30" height="30" as="alternateBounds"/></mxGeometry></mxCell><mxCell id="j83zVd82UVNJNxqpEqZ9-125" value="user_id BIGINT NOT NULL" style="shape=partialRectangle;overflow=hidden;connectable=0;top=0;left=0;bottom=0;right=0;align=left;spacingLeft=6;" parent="j83zVd82UVNJNxqpEqZ9-123" vertex="1"><mxGeometry x="30" width="410" height="30" as="geometry"><mxRectangle width="410" height="30" as="alternateBounds"/></mxGeometry></mxCell><mxCell id="j83zVd82UVNJNxqpEqZ9-445" value="" style="shape=partialRectangle;collapsible=0;dropTarget=0;pointerEvents=0;points=[[0,0.5],[1,0.5]];portConstraint=eastwest;top=0;left=0;right=0;bottom=0;" parent="j83zVd82UVNJNxqpEqZ9-119" vertex="1"><mxGeometry y="90" width="440" height="30" as="geometry"/></mxCell><mxCell id="j83zVd82UVNJNxqpEqZ9-446" value="" style="shape=partialRectangle;overflow=hidden;connectable=0;top=0;left=0;bottom=0;right=0;" parent="j83zVd82UVNJNxqpEqZ9-445" vertex="1"><mxGeometry width="30" height="30" as="geometry"><mxRectangle width="30" height="30" as="alternateBounds"/></mxGeometry></mxCell><mxCell id="j83zVd82UVNJNxqpEqZ9-447" value="group_id BIGINT" style="shape=partialRectangle;overflow=hidden;connectable=0;top=0;left=0;bottom=0;right=0;align=left;spacingLeft=6;" parent="j83zVd82UVNJNxqpEqZ9-445" vertex="1"><mxGeometry x="30" width="410" height="30" as="geometry"><mxRectangle width="410" height="30" as="alternateBounds"/></mxGeometry></mxCell><mxCell id="j83zVd82UVNJNxqpEqZ9-126" value="" style="shape=partialRectangle;collapsible=0;dropTarget=0;pointerEvents=0;points=[[0,0.5],[1,0.5]];portConstraint=eastwest;top=0;left=0;right=0;bottom=0;" parent="j83zVd82UVNJNxqpEqZ9-119" vertex="1"><mxGeometry y="120" width="440" height="30" as="geometry"/></mxCell><mxCell id="j83zVd82UVNJNxqpEqZ9-127" value="" style="shape=partialRectangle;overflow=hidden;connectable=0;top=0;left=0;bottom=0;right=0;" parent="j83zVd82UVNJNxqpEqZ9-126" vertex="1"><mxGeometry width="30" height="30" as="geometry"><mxRectangle width="30" height="30" as="alternateBounds"/></mxGeometry></mxCell><mxCell id="j83zVd82UVNJNxqpEqZ9-128" value="title VARCHAR(40) NOT NULL" style="shape=partialRectangle;overflow=hidden;connectable=0;top=0;left=0;bottom=0;right=0;align=left;spacingLeft=6;" parent="j83zVd82UVNJNxqpEqZ9-126" vertex="1"><mxGeometry x="30" width="410" height="30" as="geometry"><mxRectangle width="410" height="30" as="alternateBounds"/></mxGeometry></mxCell><mxCell id="j83zVd82UVNJNxqpEqZ9-129" value="" style="shape=partialRectangle;collapsible=0;dropTarget=0;pointerEvents=0;points=[[0,0.5],[1,0.5]];portConstraint=eastwest;top=0;left=0;right=0;bottom=0;" parent="j83zVd82UVNJNxqpEqZ9-119" vertex="1"><mxGeometry y="150" width="440" height="30" as="geometry"/></mxCell><mxCell id="j83zVd82UVNJNxqpEqZ9-130" value="" style="shape=partialRectangle;overflow=hidden;connectable=0;top=0;left=0;bottom=0;right=0;" parent="j83zVd82UVNJNxqpEqZ9-129" vertex="1"><mxGeometry width="30" height="30" as="geometry"><mxRectangle width="30" height="30" as="alternateBounds"/></mxGeometry></mxCell><mxCell id="j83zVd82UVNJNxqpEqZ9-131" value="content VARCHAR(1000) NOT NULL DEFAULT ''" style="shape=partialRectangle;overflow=hidden;connectable=0;top=0;left=0;bottom=0;right=0;align=left;spacingLeft=6;" parent="j83zVd82UVNJNxqpEqZ9-129" vertex="1"><mxGeometry x="30" width="410" height="30" as="geometry"><mxRectangle width="410" height="30" as="alternateBounds"/></mxGeometry></mxCell><mxCell id="j83zVd82UVNJNxqpEqZ9-153" value="" style="shape=partialRectangle;collapsible=0;dropTarget=0;pointerEvents=0;points=[[0,0.5],[1,0.5]];portConstraint=eastwest;top=0;left=0;right=0;bottom=0;" parent="j83zVd82UVNJNxqpEqZ9-119" vertex="1"><mxGeometry y="180" width="440" height="30" as="geometry"/></mxCell><mxCell id="j83zVd82UVNJNxqpEqZ9-154" value="" style="shape=partialRectangle;overflow=hidden;connectable=0;top=0;left=0;bottom=0;right=0;" parent="j83zVd82UVNJNxqpEqZ9-153" vertex="1"><mxGeometry width="30" height="30" as="geometry"><mxRectangle width="30" height="30" as="alternateBounds"/></mxGeometry></mxCell><mxCell id="j83zVd82UVNJNxqpEqZ9-155" value="priority TINYINT NOT NULL DEFAULT 50 (L:25, M:50, H:75)" style="shape=partialRectangle;overflow=hidden;connectable=0;top=0;left=0;bottom=0;right=0;align=left;spacingLeft=6;" parent="j83zVd82UVNJNxqpEqZ9-153" vertex="1"><mxGeometry x="30" width="410" height="30" as="geometry"><mxRectangle width="410" height="30" as="alternateBounds"/></mxGeometry></mxCell><mxCell id="j83zVd82UVNJNxqpEqZ9-178" value="" style="shape=partialRectangle;collapsible=0;dropTarget=0;pointerEvents=0;points=[[0,0.5],[1,0.5]];portConstraint=eastwest;top=0;left=0;right=0;bottom=0;" parent="j83zVd82UVNJNxqpEqZ9-119" vertex="1"><mxGeometry y="210" width="440" height="30" as="geometry"/></mxCell><mxCell id="j83zVd82UVNJNxqpEqZ9-179" value="" style="shape=partialRectangle;overflow=hidden;connectable=0;top=0;left=0;bottom=0;right=0;" parent="j83zVd82UVNJNxqpEqZ9-178" vertex="1"><mxGeometry width="30" height="30" as="geometry"><mxRectangle width="30" height="30" as="alternateBounds"/></mxGeometry></mxCell><mxCell id="j83zVd82UVNJNxqpEqZ9-180" value="parent_task_template_id BIGINT" style="shape=partialRectangle;overflow=hidden;connectable=0;top=0;left=0;bottom=0;right=0;align=left;spacingLeft=6;" parent="j83zVd82UVNJNxqpEqZ9-178" vertex="1"><mxGeometry x="30" width="410" height="30" as="geometry"><mxRectangle width="410" height="30" as="alternateBounds"/></mxGeometry></mxCell><mxCell id="j83zVd82UVNJNxqpEqZ9-181" value="" style="shape=partialRectangle;collapsible=0;dropTarget=0;pointerEvents=0;points=[[0,0.5],[1,0.5]];portConstraint=eastwest;top=0;left=0;right=0;bottom=0;" parent="j83zVd82UVNJNxqpEqZ9-119" vertex="1"><mxGeometry y="240" width="440" height="30" as="geometry"/></mxCell><mxCell id="j83zVd82UVNJNxqpEqZ9-182" value="" style="shape=partialRectangle;overflow=hidden;connectable=0;top=0;left=0;bottom=0;right=0;" parent="j83zVd82UVNJNxqpEqZ9-181" vertex="1"><mxGeometry width="30" height="30" as="geometry"><mxRectangle width="30" height="30" as="alternateBounds"/></mxGeometry></mxCell><mxCell id="j83zVd82UVNJNxqpEqZ9-183" value="status TINYINT NOT NULL DEFAULT 1" style="shape=partialRectangle;overflow=hidden;connectable=0;top=0;left=0;bottom=0;right=0;align=left;spacingLeft=6;" parent="j83zVd82UVNJNxqpEqZ9-181" vertex="1"><mxGeometry x="30" width="410" height="30" as="geometry"><mxRectangle width="410" height="30" as="alternateBounds"/></mxGeometry></mxCell><mxCell id="j83zVd82UVNJNxqpEqZ9-147" value="" style="shape=partialRectangle;collapsible=0;dropTarget=0;pointerEvents=0;points=[[0,0.5],[1,0.5]];portConstraint=eastwest;top=0;left=0;right=0;bottom=0;" parent="j83zVd82UVNJNxqpEqZ9-119" vertex="1"><mxGeometry y="270" width="440" height="30" as="geometry"/></mxCell><mxCell id="j83zVd82UVNJNxqpEqZ9-148" value="" style="shape=partialRectangle;overflow=hidden;connectable=0;top=0;left=0;bottom=0;right=0;" parent="j83zVd82UVNJNxqpEqZ9-147" vertex="1"><mxGeometry width="30" height="30" as="geometry"><mxRectangle width="30" height="30" as="alternateBounds"/></mxGeometry></mxCell><mxCell id="j83zVd82UVNJNxqpEqZ9-149" value="created_at DATETIME NOT NULL DEFAULT CURRENT_TIMESTAMP" style="shape=partialRectangle;overflow=hidden;connectable=0;top=0;left=0;bottom=0;right=0;align=left;spacingLeft=6;" parent="j83zVd82UVNJNxqpEqZ9-147" vertex="1"><mxGeometry x="30" width="410" height="30" as="geometry"><mxRectangle width="410" height="30" as="alternateBounds"/></mxGeometry></mxCell><mxCell id="j83zVd82UVNJNxqpEqZ9-150" value="" style="shape=partialRectangle;collapsible=0;dropTarget=0;pointerEvents=0;points=[[0,0.5],[1,0.5]];portConstraint=eastwest;top=0;left=0;right=0;bottom=0;" parent="j83zVd82UVNJNxqpEqZ9-119" vertex="1"><mxGeometry y="300" width="440" height="30" as="geometry"/></mxCell><mxCell id="j83zVd82UVNJNxqpEqZ9-151" value="" style="shape=partialRectangle;overflow=hidden;connectable=0;top=0;left=0;bottom=0;right=0;" parent="j83zVd82UVNJNxqpEqZ9-150" vertex="1"><mxGeometry width="30" height="30" as="geometry"><mxRectangle width="30" height="30" as="alternateBounds"/></mxGeometry></mxCell><mxCell id="j83zVd82UVNJNxqpEqZ9-152" value="modified_at DATETIME NOT NULL DEFAULT CURRENT_TIMESTAMP" style="shape=partialRectangle;overflow=hidden;connectable=0;top=0;left=0;bottom=0;right=0;align=left;spacingLeft=6;" parent="j83zVd82UVNJNxqpEqZ9-150" vertex="1"><mxGeometry x="30" width="410" height="30" as="geometry"><mxRectangle width="410" height="30" as="alternateBounds"/></mxGeometry></mxCell><mxCell id="j83zVd82UVNJNxqpEqZ9-156" value="group_task" style="shape=table;startSize=30;container=1;collapsible=1;childLayout=tableLayout;fixedRows=1;rowLines=0;fontStyle=1;align=center;resizeLast=1;fillColor=#fff2cc;strokeColor=#d6b656;" parent="1" vertex="1"><mxGeometry x="20" y="-1080" width="430" height="240" as="geometry"/></mxCell><mxCell id="j83zVd82UVNJNxqpEqZ9-157" value="" style="shape=partialRectangle;collapsible=0;dropTarget=0;pointerEvents=0;points=[[0,0.5],[1,0.5]];portConstraint=eastwest;top=0;left=0;right=0;bottom=1;" parent="j83zVd82UVNJNxqpEqZ9-156" vertex="1"><mxGeometry y="30" width="430" height="30" as="geometry"/></mxCell><mxCell id="j83zVd82UVNJNxqpEqZ9-158" value="PK" style="shape=partialRectangle;overflow=hidden;connectable=0;top=0;left=0;bottom=0;right=0;fontStyle=1;" parent="j83zVd82UVNJNxqpEqZ9-157" vertex="1"><mxGeometry width="30" height="30" as="geometry"><mxRectangle width="30" height="30" as="alternateBounds"/></mxGeometry></mxCell><mxCell id="j83zVd82UVNJNxqpEqZ9-159" value="group_task_id BIGINT NOT NULL AI" style="shape=partialRectangle;overflow=hidden;connectable=0;top=0;left=0;bottom=0;right=0;align=left;spacingLeft=6;fontStyle=1;" parent="j83zVd82UVNJNxqpEqZ9-157" vertex="1"><mxGeometry x="30" width="400" height="30" as="geometry"><mxRectangle width="400" height="30" as="alternateBounds"/></mxGeometry></mxCell><mxCell id="j83zVd82UVNJNxqpEqZ9-160" value="" style="shape=partialRectangle;collapsible=0;dropTarget=0;pointerEvents=0;points=[[0,0.5],[1,0.5]];portConstraint=eastwest;top=0;left=0;right=0;bottom=0;" parent="j83zVd82UVNJNxqpEqZ9-156" vertex="1"><mxGeometry y="60" width="430" height="30" as="geometry"/></mxCell><mxCell id="j83zVd82UVNJNxqpEqZ9-161" value="" style="shape=partialRectangle;overflow=hidden;connectable=0;top=0;left=0;bottom=0;right=0;" parent="j83zVd82UVNJNxqpEqZ9-160" vertex="1"><mxGeometry width="30" height="30" as="geometry"><mxRectangle width="30" height="30" as="alternateBounds"/></mxGeometry></mxCell><mxCell id="j83zVd82UVNJNxqpEqZ9-162" value="user_id BIGINT NOT NULL" style="shape=partialRectangle;overflow=hidden;connectable=0;top=0;left=0;bottom=0;right=0;align=left;spacingLeft=6;" parent="j83zVd82UVNJNxqpEqZ9-160" vertex="1"><mxGeometry x="30" width="400" height="30" as="geometry"><mxRectangle width="400" height="30" as="alternateBounds"/></mxGeometry></mxCell><mxCell id="j83zVd82UVNJNxqpEqZ9-163" value="" style="shape=partialRectangle;collapsible=0;dropTarget=0;pointerEvents=0;points=[[0,0.5],[1,0.5]];portConstraint=eastwest;top=0;left=0;right=0;bottom=0;" parent="j83zVd82UVNJNxqpEqZ9-156" vertex="1"><mxGeometry y="90" width="430" height="30" as="geometry"/></mxCell><mxCell id="j83zVd82UVNJNxqpEqZ9-164" value="" style="shape=partialRectangle;overflow=hidden;connectable=0;top=0;left=0;bottom=0;right=0;" parent="j83zVd82UVNJNxqpEqZ9-163" vertex="1"><mxGeometry width="30" height="30" as="geometry"><mxRectangle width="30" height="30" as="alternateBounds"/></mxGeometry></mxCell><mxCell id="j83zVd82UVNJNxqpEqZ9-165" value="title VARCHAR(30) NOT NULL" style="shape=partialRectangle;overflow=hidden;connectable=0;top=0;left=0;bottom=0;right=0;align=left;spacingLeft=6;" parent="j83zVd82UVNJNxqpEqZ9-163" vertex="1"><mxGeometry x="30" width="400" height="30" as="geometry"><mxRectangle width="400" height="30" as="alternateBounds"/></mxGeometry></mxCell><mxCell id="j83zVd82UVNJNxqpEqZ9-166" value="" style="shape=partialRectangle;collapsible=0;dropTarget=0;pointerEvents=0;points=[[0,0.5],[1,0.5]];portConstraint=eastwest;top=0;left=0;right=0;bottom=0;" parent="j83zVd82UVNJNxqpEqZ9-156" vertex="1"><mxGeometry y="120" width="430" height="30" as="geometry"/></mxCell><mxCell id="j83zVd82UVNJNxqpEqZ9-167" value="" style="shape=partialRectangle;overflow=hidden;connectable=0;top=0;left=0;bottom=0;right=0;" parent="j83zVd82UVNJNxqpEqZ9-166" vertex="1"><mxGeometry width="30" height="30" as="geometry"><mxRectangle width="30" height="30" as="alternateBounds"/></mxGeometry></mxCell><mxCell id="j83zVd82UVNJNxqpEqZ9-168" value="content VARCHAR(200) NOT NULL DEFAULT ''" style="shape=partialRectangle;overflow=hidden;connectable=0;top=0;left=0;bottom=0;right=0;align=left;spacingLeft=6;" parent="j83zVd82UVNJNxqpEqZ9-166" vertex="1"><mxGeometry x="30" width="400" height="30" as="geometry"><mxRectangle width="400" height="30" as="alternateBounds"/></mxGeometry></mxCell><mxCell id="j83zVd82UVNJNxqpEqZ9-423" value="" style="shape=partialRectangle;collapsible=0;dropTarget=0;pointerEvents=0;points=[[0,0.5],[1,0.5]];portConstraint=eastwest;top=0;left=0;right=0;bottom=0;" parent="j83zVd82UVNJNxqpEqZ9-156" vertex="1"><mxGeometry y="150" width="430" height="30" as="geometry"/></mxCell><mxCell id="j83zVd82UVNJNxqpEqZ9-424" value="" style="shape=partialRectangle;overflow=hidden;connectable=0;top=0;left=0;bottom=0;right=0;" parent="j83zVd82UVNJNxqpEqZ9-423" vertex="1"><mxGeometry width="30" height="30" as="geometry"><mxRectangle width="30" height="30" as="alternateBounds"/></mxGeometry></mxCell><mxCell id="j83zVd82UVNJNxqpEqZ9-425" value="public_state TINYINT NOT NULL DEFAULT 1" style="shape=partialRectangle;overflow=hidden;connectable=0;top=0;left=0;bottom=0;right=0;align=left;spacingLeft=6;" parent="j83zVd82UVNJNxqpEqZ9-423" vertex="1"><mxGeometry x="30" width="400" height="30" as="geometry"><mxRectangle width="400" height="30" as="alternateBounds"/></mxGeometry></mxCell><mxCell id="j83zVd82UVNJNxqpEqZ9-172" value="" style="shape=partialRectangle;collapsible=0;dropTarget=0;pointerEvents=0;points=[[0,0.5],[1,0.5]];portConstraint=eastwest;top=0;left=0;right=0;bottom=0;" parent="j83zVd82UVNJNxqpEqZ9-156" vertex="1"><mxGeometry y="180" width="430" height="30" as="geometry"/></mxCell><mxCell id="j83zVd82UVNJNxqpEqZ9-173" value="" style="shape=partialRectangle;overflow=hidden;connectable=0;top=0;left=0;bottom=0;right=0;" parent="j83zVd82UVNJNxqpEqZ9-172" vertex="1"><mxGeometry width="30" height="30" as="geometry"><mxRectangle width="30" height="30" as="alternateBounds"/></mxGeometry></mxCell><mxCell id="j83zVd82UVNJNxqpEqZ9-174" value="created_at DATETIME NOT NULL DEFAULT CURRENT_TIMESTAMP" style="shape=partialRectangle;overflow=hidden;connectable=0;top=0;left=0;bottom=0;right=0;align=left;spacingLeft=6;" parent="j83zVd82UVNJNxqpEqZ9-172" vertex="1"><mxGeometry x="30" width="400" height="30" as="geometry"><mxRectangle width="400" height="30" as="alternateBounds"/></mxGeometry></mxCell><mxCell id="j83zVd82UVNJNxqpEqZ9-175" value="" style="shape=partialRectangle;collapsible=0;dropTarget=0;pointerEvents=0;points=[[0,0.5],[1,0.5]];portConstraint=eastwest;top=0;left=0;right=0;bottom=0;" parent="j83zVd82UVNJNxqpEqZ9-156" vertex="1"><mxGeometry y="210" width="430" height="30" as="geometry"/></mxCell><mxCell id="j83zVd82UVNJNxqpEqZ9-176" value="" style="shape=partialRectangle;overflow=hidden;connectable=0;top=0;left=0;bottom=0;right=0;" parent="j83zVd82UVNJNxqpEqZ9-175" vertex="1"><mxGeometry width="30" height="30" as="geometry"><mxRectangle width="30" height="30" as="alternateBounds"/></mxGeometry></mxCell><mxCell id="j83zVd82UVNJNxqpEqZ9-177" value="modified_at DATETIME NOT NULL DEFAULT CURRENT_TIMESTAMP" style="shape=partialRectangle;overflow=hidden;connectable=0;top=0;left=0;bottom=0;right=0;align=left;spacingLeft=6;" parent="j83zVd82UVNJNxqpEqZ9-175" vertex="1"><mxGeometry x="30" width="400" height="30" as="geometry"><mxRectangle width="400" height="30" as="alternateBounds"/></mxGeometry></mxCell><mxCell id="j83zVd82UVNJNxqpEqZ9-212" value="task_group" style="shape=table;startSize=30;container=1;collapsible=1;childLayout=tableLayout;fixedRows=1;rowLines=0;fontStyle=1;align=center;resizeLast=1;fillColor=#fff2cc;strokeColor=#d6b656;" parent="1" vertex="1"><mxGeometry x="110" y="-780" width="250" height="70" as="geometry"/></mxCell><mxCell id="j83zVd82UVNJNxqpEqZ9-213" value="" style="shape=partialRectangle;collapsible=0;dropTarget=0;pointerEvents=0;points=[[0,0.5],[1,0.5]];portConstraint=eastwest;top=0;left=0;right=0;bottom=1;" parent="j83zVd82UVNJNxqpEqZ9-212" vertex="1"><mxGeometry y="30" width="250" height="30" as="geometry"/></mxCell><mxCell id="j83zVd82UVNJNxqpEqZ9-214" value="PK" style="shape=partialRectangle;overflow=hidden;connectable=0;top=0;left=0;bottom=0;right=0;fontStyle=1;" parent="j83zVd82UVNJNxqpEqZ9-213" vertex="1"><mxGeometry width="30" height="30" as="geometry"><mxRectangle width="30" height="30" as="alternateBounds"/></mxGeometry></mxCell><mxCell id="j83zVd82UVNJNxqpEqZ9-215" value="group_task_id BIGINT NOT NULL&#10;task_id BIGINT NOT NULL" style="shape=partialRectangle;overflow=hidden;connectable=0;top=0;left=0;bottom=0;right=0;align=left;spacingLeft=6;fontStyle=1;" parent="j83zVd82UVNJNxqpEqZ9-213" vertex="1"><mxGeometry x="30" width="220" height="30" as="geometry"><mxRectangle width="220" height="30" as="alternateBounds"/></mxGeometry></mxCell><mxCell id="j83zVd82UVNJNxqpEqZ9-258" value="" style="endArrow=ERone;startArrow=ERoneToMany;endFill=0;startFill=0;entryX=0.5;entryY=0;entryDx=0;entryDy=0;" parent="1" target="C-vyLk0tnHw3VtMMgP7b-23" edge="1"><mxGeometry width="100" height="100" relative="1" as="geometry"><mxPoint x="235" y="-710" as="sourcePoint"/><mxPoint x="235" y="-640" as="targetPoint"/></mxGeometry></mxCell><mxCell id="j83zVd82UVNJNxqpEqZ9-260" value="" style="endArrow=ERone;startArrow=ERoneToMany;endFill=0;startFill=0;" parent="1" source="j83zVd82UVNJNxqpEqZ9-212" edge="1"><mxGeometry width="100" height="100" relative="1" as="geometry"><mxPoint x="235" y="-780" as="sourcePoint"/><mxPoint x="235" y="-840" as="targetPoint"/></mxGeometry></mxCell><mxCell id="j83zVd82UVNJNxqpEqZ9-261" value="user" style="shape=table;startSize=30;container=1;collapsible=1;childLayout=tableLayout;fixedRows=1;rowLines=0;fontStyle=1;align=center;resizeLast=1;flipV=0;flipH=0;fillColor=#d5e8d4;strokeColor=#82b366;" parent="1" vertex="1"><mxGeometry x="540" y="-390" width="430" height="390" as="geometry"/></mxCell><mxCell id="j83zVd82UVNJNxqpEqZ9-262" value="" style="shape=partialRectangle;collapsible=0;dropTarget=0;pointerEvents=0;points=[[0,0.5],[1,0.5]];portConstraint=eastwest;top=0;left=0;right=0;bottom=1;" parent="j83zVd82UVNJNxqpEqZ9-261" vertex="1"><mxGeometry y="30" width="430" height="30" as="geometry"/></mxCell><mxCell id="j83zVd82UVNJNxqpEqZ9-263" value="PK" style="shape=partialRectangle;overflow=hidden;connectable=0;top=0;left=0;bottom=0;right=0;fontStyle=1;" parent="j83zVd82UVNJNxqpEqZ9-262" vertex="1"><mxGeometry width="30" height="30" as="geometry"><mxRectangle width="30" height="30" as="alternateBounds"/></mxGeometry></mxCell><mxCell id="j83zVd82UVNJNxqpEqZ9-264" value="user_id BIGINT NOT NULL AI" style="shape=partialRectangle;overflow=hidden;connectable=0;top=0;left=0;bottom=0;right=0;align=left;spacingLeft=6;fontStyle=1;" parent="j83zVd82UVNJNxqpEqZ9-262" vertex="1"><mxGeometry x="30" width="400" height="30" as="geometry"><mxRectangle width="400" height="30" as="alternateBounds"/></mxGeometry></mxCell><mxCell id="j83zVd82UVNJNxqpEqZ9-268" value="" style="shape=partialRectangle;collapsible=0;dropTarget=0;pointerEvents=0;points=[[0,0.5],[1,0.5]];portConstraint=eastwest;top=0;left=0;right=0;bottom=0;" parent="j83zVd82UVNJNxqpEqZ9-261" vertex="1"><mxGeometry y="60" width="430" height="30" as="geometry"/></mxCell><mxCell id="j83zVd82UVNJNxqpEqZ9-269" value="" style="shape=partialRectangle;overflow=hidden;connectable=0;top=0;left=0;bottom=0;right=0;" parent="j83zVd82UVNJNxqpEqZ9-268" vertex="1"><mxGeometry width="30" height="30" as="geometry"><mxRectangle width="30" height="30" as="alternateBounds"/></mxGeometry></mxCell><mxCell id="j83zVd82UVNJNxqpEqZ9-270" value="name VARCHAR(20) NOT NULL UNIQUE" style="shape=partialRectangle;overflow=hidden;connectable=0;top=0;left=0;bottom=0;right=0;align=left;spacingLeft=6;" parent="j83zVd82UVNJNxqpEqZ9-268" vertex="1"><mxGeometry x="30" width="400" height="30" as="geometry"><mxRectangle width="400" height="30" as="alternateBounds"/></mxGeometry></mxCell><mxCell id="j83zVd82UVNJNxqpEqZ9-271" value="" style="shape=partialRectangle;collapsible=0;dropTarget=0;pointerEvents=0;points=[[0,0.5],[1,0.5]];portConstraint=eastwest;top=0;left=0;right=0;bottom=0;" parent="j83zVd82UVNJNxqpEqZ9-261" vertex="1"><mxGeometry y="90" width="430" height="30" as="geometry"/></mxCell><mxCell id="j83zVd82UVNJNxqpEqZ9-272" value="" style="shape=partialRectangle;overflow=hidden;connectable=0;top=0;left=0;bottom=0;right=0;" parent="j83zVd82UVNJNxqpEqZ9-271" vertex="1"><mxGeometry width="30" height="30" as="geometry"><mxRectangle width="30" height="30" as="alternateBounds"/></mxGeometry></mxCell><mxCell id="j83zVd82UVNJNxqpEqZ9-273" value="login_id VARCHAR(30) UNIQUE" style="shape=partialRectangle;overflow=hidden;connectable=0;top=0;left=0;bottom=0;right=0;align=left;spacingLeft=6;" parent="j83zVd82UVNJNxqpEqZ9-271" vertex="1"><mxGeometry x="30" width="400" height="30" as="geometry"><mxRectangle width="400" height="30" as="alternateBounds"/></mxGeometry></mxCell><mxCell id="j83zVd82UVNJNxqpEqZ9-274" value="" style="shape=partialRectangle;collapsible=0;dropTarget=0;pointerEvents=0;points=[[0,0.5],[1,0.5]];portConstraint=eastwest;top=0;left=0;right=0;bottom=0;" parent="j83zVd82UVNJNxqpEqZ9-261" vertex="1"><mxGeometry y="120" width="430" height="30" as="geometry"/></mxCell><mxCell id="j83zVd82UVNJNxqpEqZ9-275" value="" style="shape=partialRectangle;overflow=hidden;connectable=0;top=0;left=0;bottom=0;right=0;" parent="j83zVd82UVNJNxqpEqZ9-274" vertex="1"><mxGeometry width="30" height="30" as="geometry"><mxRectangle width="30" height="30" as="alternateBounds"/></mxGeometry></mxCell><mxCell id="j83zVd82UVNJNxqpEqZ9-276" value="password VARCHAR(128)" style="shape=partialRectangle;overflow=hidden;connectable=0;top=0;left=0;bottom=0;right=0;align=left;spacingLeft=6;" parent="j83zVd82UVNJNxqpEqZ9-274" vertex="1"><mxGeometry x="30" width="400" height="30" as="geometry"><mxRectangle width="400" height="30" as="alternateBounds"/></mxGeometry></mxCell><mxCell id="j83zVd82UVNJNxqpEqZ9-298" value="" style="shape=partialRectangle;collapsible=0;dropTarget=0;pointerEvents=0;points=[[0,0.5],[1,0.5]];portConstraint=eastwest;top=0;left=0;right=0;bottom=0;" parent="j83zVd82UVNJNxqpEqZ9-261" vertex="1"><mxGeometry y="150" width="430" height="30" as="geometry"/></mxCell><mxCell id="j83zVd82UVNJNxqpEqZ9-299" value="" style="shape=partialRectangle;overflow=hidden;connectable=0;top=0;left=0;bottom=0;right=0;" parent="j83zVd82UVNJNxqpEqZ9-298" vertex="1"><mxGeometry width="30" height="30" as="geometry"><mxRectangle width="30" height="30" as="alternateBounds"/></mxGeometry></mxCell><mxCell id="j83zVd82UVNJNxqpEqZ9-300" value="join_type CHAR(1) NOT NULL" style="shape=partialRectangle;overflow=hidden;connectable=0;top=0;left=0;bottom=0;right=0;align=left;spacingLeft=6;" parent="j83zVd82UVNJNxqpEqZ9-298" vertex="1"><mxGeometry x="30" width="400" height="30" as="geometry"><mxRectangle width="400" height="30" as="alternateBounds"/></mxGeometry></mxCell><mxCell id="j83zVd82UVNJNxqpEqZ9-277" value="" style="shape=partialRectangle;collapsible=0;dropTarget=0;pointerEvents=0;points=[[0,0.5],[1,0.5]];portConstraint=eastwest;top=0;left=0;right=0;bottom=0;" parent="j83zVd82UVNJNxqpEqZ9-261" vertex="1"><mxGeometry y="180" width="430" height="30" as="geometry"/></mxCell><mxCell id="j83zVd82UVNJNxqpEqZ9-278" value="" style="shape=partialRectangle;overflow=hidden;connectable=0;top=0;left=0;bottom=0;right=0;" parent="j83zVd82UVNJNxqpEqZ9-277" vertex="1"><mxGeometry width="30" height="30" as="geometry"><mxRectangle width="30" height="30" as="alternateBounds"/></mxGeometry></mxCell><mxCell id="j83zVd82UVNJNxqpEqZ9-279" value="email VARCHAR(128) NOT NULL" style="shape=partialRectangle;overflow=hidden;connectable=0;top=0;left=0;bottom=0;right=0;align=left;spacingLeft=6;" parent="j83zVd82UVNJNxqpEqZ9-277" vertex="1"><mxGeometry x="30" width="400" height="30" as="geometry"><mxRectangle width="400" height="30" as="alternateBounds"/></mxGeometry></mxCell><mxCell id="j83zVd82UVNJNxqpEqZ9-283" value="" style="shape=partialRectangle;collapsible=0;dropTarget=0;pointerEvents=0;points=[[0,0.5],[1,0.5]];portConstraint=eastwest;top=0;left=0;right=0;bottom=0;" parent="j83zVd82UVNJNxqpEqZ9-261" vertex="1"><mxGeometry y="210" width="430" height="30" as="geometry"/></mxCell><mxCell id="j83zVd82UVNJNxqpEqZ9-284" value="" style="shape=partialRectangle;overflow=hidden;connectable=0;top=0;left=0;bottom=0;right=0;" parent="j83zVd82UVNJNxqpEqZ9-283" vertex="1"><mxGeometry width="30" height="30" as="geometry"><mxRectangle width="30" height="30" as="alternateBounds"/></mxGeometry></mxCell><mxCell id="j83zVd82UVNJNxqpEqZ9-285" value="phone_number VARCHAR(128)" style="shape=partialRectangle;overflow=hidden;connectable=0;top=0;left=0;bottom=0;right=0;align=left;spacingLeft=6;" parent="j83zVd82UVNJNxqpEqZ9-283" vertex="1"><mxGeometry x="30" width="400" height="30" as="geometry"><mxRectangle width="400" height="30" as="alternateBounds"/></mxGeometry></mxCell><mxCell id="j83zVd82UVNJNxqpEqZ9-286" value="" style="shape=partialRectangle;collapsible=0;dropTarget=0;pointerEvents=0;points=[[0,0.5],[1,0.5]];portConstraint=eastwest;top=0;left=0;right=0;bottom=0;" parent="j83zVd82UVNJNxqpEqZ9-261" vertex="1"><mxGeometry y="240" width="430" height="30" as="geometry"/></mxCell><mxCell id="j83zVd82UVNJNxqpEqZ9-287" value="" style="shape=partialRectangle;overflow=hidden;connectable=0;top=0;left=0;bottom=0;right=0;" parent="j83zVd82UVNJNxqpEqZ9-286" vertex="1"><mxGeometry width="30" height="30" as="geometry"><mxRectangle width="30" height="30" as="alternateBounds"/></mxGeometry></mxCell><mxCell id="j83zVd82UVNJNxqpEqZ9-288" value="auth_phone_number CHAR(1) NOT NULL DEFAULT 'N'" style="shape=partialRectangle;overflow=hidden;connectable=0;top=0;left=0;bottom=0;right=0;align=left;spacingLeft=6;" parent="j83zVd82UVNJNxqpEqZ9-286" vertex="1"><mxGeometry x="30" width="400" height="30" as="geometry"><mxRectangle width="400" height="30" as="alternateBounds"/></mxGeometry></mxCell><mxCell id="j83zVd82UVNJNxqpEqZ9-289" value="" style="shape=partialRectangle;collapsible=0;dropTarget=0;pointerEvents=0;points=[[0,0.5],[1,0.5]];portConstraint=eastwest;top=0;left=0;right=0;bottom=0;" parent="j83zVd82UVNJNxqpEqZ9-261" vertex="1"><mxGeometry y="270" width="430" height="30" as="geometry"/></mxCell><mxCell id="j83zVd82UVNJNxqpEqZ9-290" value="" style="shape=partialRectangle;overflow=hidden;connectable=0;top=0;left=0;bottom=0;right=0;" parent="j83zVd82UVNJNxqpEqZ9-289" vertex="1"><mxGeometry width="30" height="30" as="geometry"><mxRectangle width="30" height="30" as="alternateBounds"/></mxGeometry></mxCell><mxCell id="j83zVd82UVNJNxqpEqZ9-291" value="deleted CHAR(1) NOT NULL DEFAULT 'N'" style="shape=partialRectangle;overflow=hidden;connectable=0;top=0;left=0;bottom=0;right=0;align=left;spacingLeft=6;" parent="j83zVd82UVNJNxqpEqZ9-289" vertex="1"><mxGeometry x="30" width="400" height="30" as="geometry"><mxRectangle width="400" height="30" as="alternateBounds"/></mxGeometry></mxCell><mxCell id="j83zVd82UVNJNxqpEqZ9-292" value="" style="shape=partialRectangle;collapsible=0;dropTarget=0;pointerEvents=0;points=[[0,0.5],[1,0.5]];portConstraint=eastwest;top=0;left=0;right=0;bottom=0;" parent="j83zVd82UVNJNxqpEqZ9-261" vertex="1"><mxGeometry y="300" width="430" height="30" as="geometry"/></mxCell><mxCell id="j83zVd82UVNJNxqpEqZ9-293" value="" style="shape=partialRectangle;overflow=hidden;connectable=0;top=0;left=0;bottom=0;right=0;" parent="j83zVd82UVNJNxqpEqZ9-292" vertex="1"><mxGeometry width="30" height="30" as="geometry"><mxRectangle width="30" height="30" as="alternateBounds"/></mxGeometry></mxCell><mxCell id="j83zVd82UVNJNxqpEqZ9-294" value="created_at DATETIME NOT NULL DEFAULT CURRENT_TIMESTAMP" style="shape=partialRectangle;overflow=hidden;connectable=0;top=0;left=0;bottom=0;right=0;align=left;spacingLeft=6;" parent="j83zVd82UVNJNxqpEqZ9-292" vertex="1"><mxGeometry x="30" width="400" height="30" as="geometry"><mxRectangle width="400" height="30" as="alternateBounds"/></mxGeometry></mxCell><mxCell id="j83zVd82UVNJNxqpEqZ9-295" value="" style="shape=partialRectangle;collapsible=0;dropTarget=0;pointerEvents=0;points=[[0,0.5],[1,0.5]];portConstraint=eastwest;top=0;left=0;right=0;bottom=0;" parent="j83zVd82UVNJNxqpEqZ9-261" vertex="1"><mxGeometry y="330" width="430" height="30" as="geometry"/></mxCell><mxCell id="j83zVd82UVNJNxqpEqZ9-296" value="" style="shape=partialRectangle;overflow=hidden;connectable=0;top=0;left=0;bottom=0;right=0;" parent="j83zVd82UVNJNxqpEqZ9-295" vertex="1"><mxGeometry width="30" height="30" as="geometry"><mxRectangle width="30" height="30" as="alternateBounds"/></mxGeometry></mxCell><mxCell id="j83zVd82UVNJNxqpEqZ9-297" value="modified_at DATETIME NOT NULL DEFAULT CURRENT_TIMESTAMP" style="shape=partialRectangle;overflow=hidden;connectable=0;top=0;left=0;bottom=0;right=0;align=left;spacingLeft=6;" parent="j83zVd82UVNJNxqpEqZ9-295" vertex="1"><mxGeometry x="30" width="400" height="30" as="geometry"><mxRectangle width="400" height="30" as="alternateBounds"/></mxGeometry></mxCell><mxCell id="j83zVd82UVNJNxqpEqZ9-304" value="" style="shape=partialRectangle;collapsible=0;dropTarget=0;pointerEvents=0;points=[[0,0.5],[1,0.5]];portConstraint=eastwest;top=0;left=0;right=0;bottom=0;" parent="j83zVd82UVNJNxqpEqZ9-261" vertex="1"><mxGeometry y="360" width="430" height="30" as="geometry"/></mxCell><mxCell id="j83zVd82UVNJNxqpEqZ9-305" value="" style="shape=partialRectangle;overflow=hidden;connectable=0;top=0;left=0;bottom=0;right=0;" parent="j83zVd82UVNJNxqpEqZ9-304" vertex="1"><mxGeometry width="30" height="30" as="geometry"><mxRectangle width="30" height="30" as="alternateBounds"/></mxGeometry></mxCell><mxCell id="j83zVd82UVNJNxqpEqZ9-306" value="deleted_at DATETIME DEFAULT CURRENT_TIMESTAMP" style="shape=partialRectangle;overflow=hidden;connectable=0;top=0;left=0;bottom=0;right=0;align=left;spacingLeft=6;" parent="j83zVd82UVNJNxqpEqZ9-304" vertex="1"><mxGeometry x="30" width="400" height="30" as="geometry"><mxRectangle width="400" height="30" as="alternateBounds"/></mxGeometry></mxCell><mxCell id="j83zVd82UVNJNxqpEqZ9-310" value="user_sns_info" style="shape=table;startSize=30;container=1;collapsible=1;childLayout=tableLayout;fixedRows=1;rowLines=0;fontStyle=1;align=center;resizeLast=1;flipV=0;flipH=0;fillColor=#d5e8d4;strokeColor=#82b366;" parent="1" vertex="1"><mxGeometry x="530" y="40" width="430" height="270" as="geometry"/></mxCell><mxCell id="j83zVd82UVNJNxqpEqZ9-311" value="" style="shape=partialRectangle;collapsible=0;dropTarget=0;pointerEvents=0;points=[[0,0.5],[1,0.5]];portConstraint=eastwest;top=0;left=0;right=0;bottom=1;" parent="j83zVd82UVNJNxqpEqZ9-310" vertex="1"><mxGeometry y="30" width="430" height="30" as="geometry"/></mxCell><mxCell id="j83zVd82UVNJNxqpEqZ9-312" value="PK" style="shape=partialRectangle;overflow=hidden;connectable=0;top=0;left=0;bottom=0;right=0;fontStyle=1;" parent="j83zVd82UVNJNxqpEqZ9-311" vertex="1"><mxGeometry width="30" height="30" as="geometry"><mxRectangle width="30" height="30" as="alternateBounds"/></mxGeometry></mxCell><mxCell id="j83zVd82UVNJNxqpEqZ9-313" value="user_sns_info_id BIGINT NOT NULL AI" style="shape=partialRectangle;overflow=hidden;connectable=0;top=0;left=0;bottom=0;right=0;align=left;spacingLeft=6;fontStyle=1;" parent="j83zVd82UVNJNxqpEqZ9-311" vertex="1"><mxGeometry x="30" width="400" height="30" as="geometry"><mxRectangle width="400" height="30" as="alternateBounds"/></mxGeometry></mxCell><mxCell id="j83zVd82UVNJNxqpEqZ9-314" value="" style="shape=partialRectangle;collapsible=0;dropTarget=0;pointerEvents=0;points=[[0,0.5],[1,0.5]];portConstraint=eastwest;top=0;left=0;right=0;bottom=0;" parent="j83zVd82UVNJNxqpEqZ9-310" vertex="1"><mxGeometry y="60" width="430" height="30" as="geometry"/></mxCell><mxCell id="j83zVd82UVNJNxqpEqZ9-315" value="" style="shape=partialRectangle;overflow=hidden;connectable=0;top=0;left=0;bottom=0;right=0;" parent="j83zVd82UVNJNxqpEqZ9-314" vertex="1"><mxGeometry width="30" height="30" as="geometry"><mxRectangle width="30" height="30" as="alternateBounds"/></mxGeometry></mxCell><mxCell id="j83zVd82UVNJNxqpEqZ9-316" value="user_id BIGINT NOT NULL" style="shape=partialRectangle;overflow=hidden;connectable=0;top=0;left=0;bottom=0;right=0;align=left;spacingLeft=6;" parent="j83zVd82UVNJNxqpEqZ9-314" vertex="1"><mxGeometry x="30" width="400" height="30" as="geometry"><mxRectangle width="400" height="30" as="alternateBounds"/></mxGeometry></mxCell><mxCell id="j83zVd82UVNJNxqpEqZ9-317" value="" style="shape=partialRectangle;collapsible=0;dropTarget=0;pointerEvents=0;points=[[0,0.5],[1,0.5]];portConstraint=eastwest;top=0;left=0;right=0;bottom=0;" parent="j83zVd82UVNJNxqpEqZ9-310" vertex="1"><mxGeometry y="90" width="430" height="30" as="geometry"/></mxCell><mxCell id="j83zVd82UVNJNxqpEqZ9-318" value="" style="shape=partialRectangle;overflow=hidden;connectable=0;top=0;left=0;bottom=0;right=0;" parent="j83zVd82UVNJNxqpEqZ9-317" vertex="1"><mxGeometry width="30" height="30" as="geometry"><mxRectangle width="30" height="30" as="alternateBounds"/></mxGeometry></mxCell><mxCell id="j83zVd82UVNJNxqpEqZ9-319" value="sns_type CHAR(1) NOT NULL" style="shape=partialRectangle;overflow=hidden;connectable=0;top=0;left=0;bottom=0;right=0;align=left;spacingLeft=6;" parent="j83zVd82UVNJNxqpEqZ9-317" vertex="1"><mxGeometry x="30" width="400" height="30" as="geometry"><mxRectangle width="400" height="30" as="alternateBounds"/></mxGeometry></mxCell><mxCell id="j83zVd82UVNJNxqpEqZ9-320" value="" style="shape=partialRectangle;collapsible=0;dropTarget=0;pointerEvents=0;points=[[0,0.5],[1,0.5]];portConstraint=eastwest;top=0;left=0;right=0;bottom=0;" parent="j83zVd82UVNJNxqpEqZ9-310" vertex="1"><mxGeometry y="120" width="430" height="30" as="geometry"/></mxCell><mxCell id="j83zVd82UVNJNxqpEqZ9-321" value="" style="shape=partialRectangle;overflow=hidden;connectable=0;top=0;left=0;bottom=0;right=0;" parent="j83zVd82UVNJNxqpEqZ9-320" vertex="1"><mxGeometry width="30" height="30" as="geometry"><mxRectangle width="30" height="30" as="alternateBounds"/></mxGeometry></mxCell><mxCell id="j83zVd82UVNJNxqpEqZ9-322" value="sns_id VARCHAR(255)" style="shape=partialRectangle;overflow=hidden;connectable=0;top=0;left=0;bottom=0;right=0;align=left;spacingLeft=6;" parent="j83zVd82UVNJNxqpEqZ9-320" vertex="1"><mxGeometry x="30" width="400" height="30" as="geometry"><mxRectangle width="400" height="30" as="alternateBounds"/></mxGeometry></mxCell><mxCell id="j83zVd82UVNJNxqpEqZ9-335" value="" style="shape=partialRectangle;collapsible=0;dropTarget=0;pointerEvents=0;points=[[0,0.5],[1,0.5]];portConstraint=eastwest;top=0;left=0;right=0;bottom=0;" parent="j83zVd82UVNJNxqpEqZ9-310" vertex="1"><mxGeometry y="150" width="430" height="30" as="geometry"/></mxCell><mxCell id="j83zVd82UVNJNxqpEqZ9-336" value="" style="shape=partialRectangle;overflow=hidden;connectable=0;top=0;left=0;bottom=0;right=0;" parent="j83zVd82UVNJNxqpEqZ9-335" vertex="1"><mxGeometry width="30" height="30" as="geometry"><mxRectangle width="30" height="30" as="alternateBounds"/></mxGeometry></mxCell><mxCell id="j83zVd82UVNJNxqpEqZ9-337" value="deleted CHAR(1) NOT NULL DEFAULT 'N'" style="shape=partialRectangle;overflow=hidden;connectable=0;top=0;left=0;bottom=0;right=0;align=left;spacingLeft=6;" parent="j83zVd82UVNJNxqpEqZ9-335" vertex="1"><mxGeometry x="30" width="400" height="30" as="geometry"><mxRectangle width="400" height="30" as="alternateBounds"/></mxGeometry></mxCell><mxCell id="j83zVd82UVNJNxqpEqZ9-338" value="" style="shape=partialRectangle;collapsible=0;dropTarget=0;pointerEvents=0;points=[[0,0.5],[1,0.5]];portConstraint=eastwest;top=0;left=0;right=0;bottom=0;" parent="j83zVd82UVNJNxqpEqZ9-310" vertex="1"><mxGeometry y="180" width="430" height="30" as="geometry"/></mxCell><mxCell id="j83zVd82UVNJNxqpEqZ9-339" value="" style="shape=partialRectangle;overflow=hidden;connectable=0;top=0;left=0;bottom=0;right=0;" parent="j83zVd82UVNJNxqpEqZ9-338" vertex="1"><mxGeometry width="30" height="30" as="geometry"><mxRectangle width="30" height="30" as="alternateBounds"/></mxGeometry></mxCell><mxCell id="j83zVd82UVNJNxqpEqZ9-340" value="created_at DATETIME NOT NULL DEFAULT CURRENT_TIMESTAMP" style="shape=partialRectangle;overflow=hidden;connectable=0;top=0;left=0;bottom=0;right=0;align=left;spacingLeft=6;" parent="j83zVd82UVNJNxqpEqZ9-338" vertex="1"><mxGeometry x="30" width="400" height="30" as="geometry"><mxRectangle width="400" height="30" as="alternateBounds"/></mxGeometry></mxCell><mxCell id="j83zVd82UVNJNxqpEqZ9-368" value="" style="shape=partialRectangle;collapsible=0;dropTarget=0;pointerEvents=0;points=[[0,0.5],[1,0.5]];portConstraint=eastwest;top=0;left=0;right=0;bottom=0;" parent="j83zVd82UVNJNxqpEqZ9-310" vertex="1"><mxGeometry y="210" width="430" height="30" as="geometry"/></mxCell><mxCell id="j83zVd82UVNJNxqpEqZ9-369" value="" style="shape=partialRectangle;overflow=hidden;connectable=0;top=0;left=0;bottom=0;right=0;" parent="j83zVd82UVNJNxqpEqZ9-368" vertex="1"><mxGeometry width="30" height="30" as="geometry"><mxRectangle width="30" height="30" as="alternateBounds"/></mxGeometry></mxCell><mxCell id="j83zVd82UVNJNxqpEqZ9-370" value="modified_at DATETIME NOT NULL DEFAULT CURRENT_TIMESTAMP" style="shape=partialRectangle;overflow=hidden;connectable=0;top=0;left=0;bottom=0;right=0;align=left;spacingLeft=6;" parent="j83zVd82UVNJNxqpEqZ9-368" vertex="1"><mxGeometry x="30" width="400" height="30" as="geometry"><mxRectangle width="400" height="30" as="alternateBounds"/></mxGeometry></mxCell><mxCell id="j83zVd82UVNJNxqpEqZ9-341" value="" style="shape=partialRectangle;collapsible=0;dropTarget=0;pointerEvents=0;points=[[0,0.5],[1,0.5]];portConstraint=eastwest;top=0;left=0;right=0;bottom=0;" parent="j83zVd82UVNJNxqpEqZ9-310" vertex="1"><mxGeometry y="240" width="430" height="30" as="geometry"/></mxCell><mxCell id="j83zVd82UVNJNxqpEqZ9-342" value="" style="shape=partialRectangle;overflow=hidden;connectable=0;top=0;left=0;bottom=0;right=0;" parent="j83zVd82UVNJNxqpEqZ9-341" vertex="1"><mxGeometry width="30" height="30" as="geometry"><mxRectangle width="30" height="30" as="alternateBounds"/></mxGeometry></mxCell><mxCell id="j83zVd82UVNJNxqpEqZ9-343" value="deleted_at DATETIME DEFAULT CURRENT_TIMESTAMP" style="shape=partialRectangle;overflow=hidden;connectable=0;top=0;left=0;bottom=0;right=0;align=left;spacingLeft=6;" parent="j83zVd82UVNJNxqpEqZ9-341" vertex="1"><mxGeometry x="30" width="400" height="30" as="geometry"><mxRectangle width="400" height="30" as="alternateBounds"/></mxGeometry></mxCell><mxCell id="j83zVd82UVNJNxqpEqZ9-371" value="" style="edgeStyle=entityRelationEdgeStyle;endArrow=ERoneToMany;startArrow=ERone;endFill=0;startFill=0;" parent="1" source="j83zVd82UVNJNxqpEqZ9-261" target="C-vyLk0tnHw3VtMMgP7b-23" edge="1"><mxGeometry width="100" height="100" relative="1" as="geometry"><mxPoint x="780" y="-250" as="sourcePoint"/><mxPoint x="690" y="-240" as="targetPoint"/></mxGeometry></mxCell><mxCell id="j83zVd82UVNJNxqpEqZ9-372" value="" style="endArrow=ERone;startArrow=ERzeroToMany;endFill=0;startFill=0;exitX=0.5;exitY=0;exitDx=0;exitDy=0;entryX=0.476;entryY=1.01;entryDx=0;entryDy=0;entryPerimeter=0;" parent="1" source="j83zVd82UVNJNxqpEqZ9-310" target="j83zVd82UVNJNxqpEqZ9-304" edge="1"><mxGeometry width="100" height="100" relative="1" as="geometry"><mxPoint x="900" y="-515" as="sourcePoint"/><mxPoint x="800" y="-585" as="targetPoint"/></mxGeometry></mxCell><mxCell id="j83zVd82UVNJNxqpEqZ9-373" value="group_user" style="shape=table;startSize=30;container=1;collapsible=1;childLayout=tableLayout;fixedRows=1;rowLines=0;fontStyle=1;align=center;resizeLast=1;fillColor=#d5e8d4;strokeColor=#82b366;" parent="1" vertex="1"><mxGeometry x="1410" y="-300" width="430" height="240" as="geometry"/></mxCell><mxCell id="j83zVd82UVNJNxqpEqZ9-374" value="" style="shape=partialRectangle;collapsible=0;dropTarget=0;pointerEvents=0;points=[[0,0.5],[1,0.5]];portConstraint=eastwest;top=0;left=0;right=0;bottom=1;" parent="j83zVd82UVNJNxqpEqZ9-373" vertex="1"><mxGeometry y="30" width="430" height="30" as="geometry"/></mxCell><mxCell id="j83zVd82UVNJNxqpEqZ9-375" value="PK" style="shape=partialRectangle;overflow=hidden;connectable=0;top=0;left=0;bottom=0;right=0;fontStyle=1;" parent="j83zVd82UVNJNxqpEqZ9-374" vertex="1"><mxGeometry width="30" height="30" as="geometry"><mxRectangle width="30" height="30" as="alternateBounds"/></mxGeometry></mxCell><mxCell id="j83zVd82UVNJNxqpEqZ9-376" value="group_user_id BIGINT NOT NULL AI" style="shape=partialRectangle;overflow=hidden;connectable=0;top=0;left=0;bottom=0;right=0;align=left;spacingLeft=6;fontStyle=1;" parent="j83zVd82UVNJNxqpEqZ9-374" vertex="1"><mxGeometry x="30" width="400" height="30" as="geometry"><mxRectangle width="400" height="30" as="alternateBounds"/></mxGeometry></mxCell><mxCell id="j83zVd82UVNJNxqpEqZ9-377" value="" style="shape=partialRectangle;collapsible=0;dropTarget=0;pointerEvents=0;points=[[0,0.5],[1,0.5]];portConstraint=eastwest;top=0;left=0;right=0;bottom=0;" parent="j83zVd82UVNJNxqpEqZ9-373" vertex="1"><mxGeometry y="60" width="430" height="30" as="geometry"/></mxCell><mxCell id="j83zVd82UVNJNxqpEqZ9-378" value="" style="shape=partialRectangle;overflow=hidden;connectable=0;top=0;left=0;bottom=0;right=0;" parent="j83zVd82UVNJNxqpEqZ9-377" vertex="1"><mxGeometry width="30" height="30" as="geometry"><mxRectangle width="30" height="30" as="alternateBounds"/></mxGeometry></mxCell><mxCell id="j83zVd82UVNJNxqpEqZ9-379" value="user_id BIGINT NOT NULL" style="shape=partialRectangle;overflow=hidden;connectable=0;top=0;left=0;bottom=0;right=0;align=left;spacingLeft=6;" parent="j83zVd82UVNJNxqpEqZ9-377" vertex="1"><mxGeometry x="30" width="400" height="30" as="geometry"><mxRectangle width="400" height="30" as="alternateBounds"/></mxGeometry></mxCell><mxCell id="j83zVd82UVNJNxqpEqZ9-380" value="" style="shape=partialRectangle;collapsible=0;dropTarget=0;pointerEvents=0;points=[[0,0.5],[1,0.5]];portConstraint=eastwest;top=0;left=0;right=0;bottom=0;" parent="j83zVd82UVNJNxqpEqZ9-373" vertex="1"><mxGeometry y="90" width="430" height="30" as="geometry"/></mxCell><mxCell id="j83zVd82UVNJNxqpEqZ9-381" value="" style="shape=partialRectangle;overflow=hidden;connectable=0;top=0;left=0;bottom=0;right=0;" parent="j83zVd82UVNJNxqpEqZ9-380" vertex="1"><mxGeometry width="30" height="30" as="geometry"><mxRectangle width="30" height="30" as="alternateBounds"/></mxGeometry></mxCell><mxCell id="j83zVd82UVNJNxqpEqZ9-382" value="title VARCHAR(30) NOT NULL" style="shape=partialRectangle;overflow=hidden;connectable=0;top=0;left=0;bottom=0;right=0;align=left;spacingLeft=6;" parent="j83zVd82UVNJNxqpEqZ9-380" vertex="1"><mxGeometry x="30" width="400" height="30" as="geometry"><mxRectangle width="400" height="30" as="alternateBounds"/></mxGeometry></mxCell><mxCell id="j83zVd82UVNJNxqpEqZ9-383" value="" style="shape=partialRectangle;collapsible=0;dropTarget=0;pointerEvents=0;points=[[0,0.5],[1,0.5]];portConstraint=eastwest;top=0;left=0;right=0;bottom=0;" parent="j83zVd82UVNJNxqpEqZ9-373" vertex="1"><mxGeometry y="120" width="430" height="30" as="geometry"/></mxCell><mxCell id="j83zVd82UVNJNxqpEqZ9-384" value="" style="shape=partialRectangle;overflow=hidden;connectable=0;top=0;left=0;bottom=0;right=0;" parent="j83zVd82UVNJNxqpEqZ9-383" vertex="1"><mxGeometry width="30" height="30" as="geometry"><mxRectangle width="30" height="30" as="alternateBounds"/></mxGeometry></mxCell><mxCell id="j83zVd82UVNJNxqpEqZ9-385" value="content VARCHAR(200) NOT NULL DEFAULT ''" style="shape=partialRectangle;overflow=hidden;connectable=0;top=0;left=0;bottom=0;right=0;align=left;spacingLeft=6;" parent="j83zVd82UVNJNxqpEqZ9-383" vertex="1"><mxGeometry x="30" width="400" height="30" as="geometry"><mxRectangle width="400" height="30" as="alternateBounds"/></mxGeometry></mxCell><mxCell id="j83zVd82UVNJNxqpEqZ9-420" value="" style="shape=partialRectangle;collapsible=0;dropTarget=0;pointerEvents=0;points=[[0,0.5],[1,0.5]];portConstraint=eastwest;top=0;left=0;right=0;bottom=0;" parent="j83zVd82UVNJNxqpEqZ9-373" vertex="1"><mxGeometry y="150" width="430" height="30" as="geometry"/></mxCell><mxCell id="j83zVd82UVNJNxqpEqZ9-421" value="" style="shape=partialRectangle;overflow=hidden;connectable=0;top=0;left=0;bottom=0;right=0;" parent="j83zVd82UVNJNxqpEqZ9-420" vertex="1"><mxGeometry width="30" height="30" as="geometry"><mxRectangle width="30" height="30" as="alternateBounds"/></mxGeometry></mxCell><mxCell id="j83zVd82UVNJNxqpEqZ9-422" value="public_state TINYINT NOT NULL DEFAULT 1" style="shape=partialRectangle;overflow=hidden;connectable=0;top=0;left=0;bottom=0;right=0;align=left;spacingLeft=6;" parent="j83zVd82UVNJNxqpEqZ9-420" vertex="1"><mxGeometry x="30" width="400" height="30" as="geometry"><mxRectangle width="400" height="30" as="alternateBounds"/></mxGeometry></mxCell><mxCell id="j83zVd82UVNJNxqpEqZ9-386" value="" style="shape=partialRectangle;collapsible=0;dropTarget=0;pointerEvents=0;points=[[0,0.5],[1,0.5]];portConstraint=eastwest;top=0;left=0;right=0;bottom=0;" parent="j83zVd82UVNJNxqpEqZ9-373" vertex="1"><mxGeometry y="180" width="430" height="30" as="geometry"/></mxCell><mxCell id="j83zVd82UVNJNxqpEqZ9-387" value="" style="shape=partialRectangle;overflow=hidden;connectable=0;top=0;left=0;bottom=0;right=0;" parent="j83zVd82UVNJNxqpEqZ9-386" vertex="1"><mxGeometry width="30" height="30" as="geometry"><mxRectangle width="30" height="30" as="alternateBounds"/></mxGeometry></mxCell><mxCell id="j83zVd82UVNJNxqpEqZ9-388" value="created_at DATETIME NOT NULL DEFAULT CURRENT_TIMESTAMP" style="shape=partialRectangle;overflow=hidden;connectable=0;top=0;left=0;bottom=0;right=0;align=left;spacingLeft=6;" parent="j83zVd82UVNJNxqpEqZ9-386" vertex="1"><mxGeometry x="30" width="400" height="30" as="geometry"><mxRectangle width="400" height="30" as="alternateBounds"/></mxGeometry></mxCell><mxCell id="j83zVd82UVNJNxqpEqZ9-389" value="" style="shape=partialRectangle;collapsible=0;dropTarget=0;pointerEvents=0;points=[[0,0.5],[1,0.5]];portConstraint=eastwest;top=0;left=0;right=0;bottom=0;" parent="j83zVd82UVNJNxqpEqZ9-373" vertex="1"><mxGeometry y="210" width="430" height="30" as="geometry"/></mxCell><mxCell id="j83zVd82UVNJNxqpEqZ9-390" value="" style="shape=partialRectangle;overflow=hidden;connectable=0;top=0;left=0;bottom=0;right=0;" parent="j83zVd82UVNJNxqpEqZ9-389" vertex="1"><mxGeometry width="30" height="30" as="geometry"><mxRectangle width="30" height="30" as="alternateBounds"/></mxGeometry></mxCell><mxCell id="j83zVd82UVNJNxqpEqZ9-391" value="modified_at DATETIME NOT NULL DEFAULT CURRENT_TIMESTAMP" style="shape=partialRectangle;overflow=hidden;connectable=0;top=0;left=0;bottom=0;right=0;align=left;spacingLeft=6;" parent="j83zVd82UVNJNxqpEqZ9-389" vertex="1"><mxGeometry x="30" width="400" height="30" as="geometry"><mxRectangle width="400" height="30" as="alternateBounds"/></mxGeometry></mxCell><mxCell id="j83zVd82UVNJNxqpEqZ9-401" value="user_group" style="shape=table;startSize=30;container=1;collapsible=1;childLayout=tableLayout;fixedRows=1;rowLines=0;fontStyle=1;align=center;resizeLast=1;fillColor=#d5e8d4;strokeColor=#82b366;" parent="1" vertex="1"><mxGeometry x="1040" y="-265" width="280" height="90" as="geometry"/></mxCell><mxCell id="j83zVd82UVNJNxqpEqZ9-402" value="" style="shape=partialRectangle;collapsible=0;dropTarget=0;pointerEvents=0;points=[[0,0.5],[1,0.5]];portConstraint=eastwest;top=0;left=0;right=0;bottom=1;" parent="j83zVd82UVNJNxqpEqZ9-401" vertex="1"><mxGeometry y="30" width="280" height="30" as="geometry"/></mxCell><mxCell id="j83zVd82UVNJNxqpEqZ9-403" value="PK" style="shape=partialRectangle;overflow=hidden;connectable=0;top=0;left=0;bottom=0;right=0;fontStyle=1;" parent="j83zVd82UVNJNxqpEqZ9-402" vertex="1"><mxGeometry width="30" height="30" as="geometry"><mxRectangle width="30" height="30" as="alternateBounds"/></mxGeometry></mxCell><mxCell id="j83zVd82UVNJNxqpEqZ9-404" value="group_user_id BIGINT NOT NULL&#10;user_id BIGINT NOT NULL" style="shape=partialRectangle;overflow=hidden;connectable=0;top=0;left=0;bottom=0;right=0;align=left;spacingLeft=6;fontStyle=1;" parent="j83zVd82UVNJNxqpEqZ9-402" vertex="1"><mxGeometry x="30" width="250" height="30" as="geometry"><mxRectangle width="250" height="30" as="alternateBounds"/></mxGeometry></mxCell><mxCell id="j83zVd82UVNJNxqpEqZ9-417" value="" style="shape=partialRectangle;collapsible=0;dropTarget=0;pointerEvents=0;points=[[0,0.5],[1,0.5]];portConstraint=eastwest;top=0;left=0;right=0;bottom=0;" parent="j83zVd82UVNJNxqpEqZ9-401" vertex="1"><mxGeometry y="60" width="280" height="30" as="geometry"/></mxCell><mxCell id="j83zVd82UVNJNxqpEqZ9-418" value="" style="shape=partialRectangle;overflow=hidden;connectable=0;top=0;left=0;bottom=0;right=0;" parent="j83zVd82UVNJNxqpEqZ9-417" vertex="1"><mxGeometry width="30" height="30" as="geometry"><mxRectangle width="30" height="30" as="alternateBounds"/></mxGeometry></mxCell><mxCell id="j83zVd82UVNJNxqpEqZ9-419" value="role TINYINT NOT NULL DEFAULT 1" style="shape=partialRectangle;overflow=hidden;connectable=0;top=0;left=0;bottom=0;right=0;align=left;spacingLeft=6;" parent="j83zVd82UVNJNxqpEqZ9-417" vertex="1"><mxGeometry x="30" width="250" height="30" as="geometry"><mxRectangle width="250" height="30" as="alternateBounds"/></mxGeometry></mxCell><mxCell id="j83zVd82UVNJNxqpEqZ9-429" value="group_task_category" style="shape=table;startSize=30;container=1;collapsible=1;childLayout=tableLayout;fixedRows=1;rowLines=0;fontStyle=1;align=center;resizeLast=1;flipV=0;fillColor=#fff2cc;strokeColor=#d6b656;" parent="1" vertex="1"><mxGeometry x="540" y="-860" width="250" height="70" as="geometry"/></mxCell><mxCell id="j83zVd82UVNJNxqpEqZ9-430" value="" style="shape=partialRectangle;collapsible=0;dropTarget=0;pointerEvents=0;points=[[0,0.5],[1,0.5]];portConstraint=eastwest;top=0;left=0;right=0;bottom=1;" parent="j83zVd82UVNJNxqpEqZ9-429" vertex="1"><mxGeometry y="30" width="250" height="30" as="geometry"/></mxCell><mxCell id="j83zVd82UVNJNxqpEqZ9-431" value="PK" style="shape=partialRectangle;overflow=hidden;connectable=0;top=0;left=0;bottom=0;right=0;fontStyle=1;" parent="j83zVd82UVNJNxqpEqZ9-430" vertex="1"><mxGeometry width="30" height="30" as="geometry"><mxRectangle width="30" height="30" as="alternateBounds"/></mxGeometry></mxCell><mxCell id="j83zVd82UVNJNxqpEqZ9-432" value="group_task_id BIGINT NOT NULL&#10;category_id INT NOT NULL" style="shape=partialRectangle;overflow=hidden;connectable=0;top=0;left=0;bottom=0;right=0;align=left;spacingLeft=6;fontStyle=1;" parent="j83zVd82UVNJNxqpEqZ9-430" vertex="1"><mxGeometry x="30" width="220" height="30" as="geometry"><mxRectangle width="220" height="30" as="alternateBounds"/></mxGeometry></mxCell><mxCell id="j83zVd82UVNJNxqpEqZ9-433" value="" style="endArrow=ERone;startArrow=ERoneToMany;endFill=0;startFill=0;entryX=1;entryY=0.5;entryDx=0;entryDy=0;edgeStyle=entityRelationEdgeStyle;" parent="1" source="j83zVd82UVNJNxqpEqZ9-429" target="j83zVd82UVNJNxqpEqZ9-166" edge="1"><mxGeometry width="100" height="100" relative="1" as="geometry"><mxPoint x="245" y="-770" as="sourcePoint"/><mxPoint x="245" y="-830" as="targetPoint"/></mxGeometry></mxCell><mxCell id="j83zVd82UVNJNxqpEqZ9-434" value="" style="endArrow=ERone;startArrow=ERoneToMany;endFill=0;startFill=0;edgeStyle=orthogonalEdgeStyle;elbow=vertical;" parent="1" source="j83zVd82UVNJNxqpEqZ9-429" edge="1"><mxGeometry width="100" height="100" relative="1" as="geometry"><mxPoint x="460" y="-935" as="sourcePoint"/><mxPoint x="1110" y="-631" as="targetPoint"/></mxGeometry></mxCell><mxCell id="j83zVd82UVNJNxqpEqZ9-436" value="" style="edgeStyle=entityRelationEdgeStyle;endArrow=ERone;startArrow=ERoneToMany;endFill=0;startFill=0;exitX=1;exitY=0.5;exitDx=0;exitDy=0;" parent="1" source="j83zVd82UVNJNxqpEqZ9-401" target="j83zVd82UVNJNxqpEqZ9-373" edge="1"><mxGeometry width="100" height="100" relative="1" as="geometry"><mxPoint x="800" y="-585" as="sourcePoint"/><mxPoint x="900" y="-515" as="targetPoint"/></mxGeometry></mxCell><mxCell id="j83zVd82UVNJNxqpEqZ9-437" value="" style="edgeStyle=entityRelationEdgeStyle;endArrow=ERone;startArrow=ERoneToMany;endFill=0;startFill=0;exitX=0;exitY=0.5;exitDx=0;exitDy=0;" parent="1" source="j83zVd82UVNJNxqpEqZ9-402" target="j83zVd82UVNJNxqpEqZ9-261" edge="1"><mxGeometry width="100" height="100" relative="1" as="geometry"><mxPoint x="1410" y="-210" as="sourcePoint"/><mxPoint x="1330" y="-210" as="targetPoint"/></mxGeometry></mxCell><mxCell id="j83zVd82UVNJNxqpEqZ9-438" value="group_user_category" style="shape=table;startSize=30;container=1;collapsible=1;childLayout=tableLayout;fixedRows=1;rowLines=0;fontStyle=1;align=center;resizeLast=1;flipV=0;fillColor=#d5e8d4;strokeColor=#82b366;" parent="1" vertex="1"><mxGeometry x="1380" y="-490" width="250" height="70" as="geometry"/></mxCell><mxCell id="j83zVd82UVNJNxqpEqZ9-439" value="" style="shape=partialRectangle;collapsible=0;dropTarget=0;pointerEvents=0;points=[[0,0.5],[1,0.5]];portConstraint=eastwest;top=0;left=0;right=0;bottom=1;" parent="j83zVd82UVNJNxqpEqZ9-438" vertex="1"><mxGeometry y="30" width="250" height="30" as="geometry"/></mxCell><mxCell id="j83zVd82UVNJNxqpEqZ9-440" value="PK" style="shape=partialRectangle;overflow=hidden;connectable=0;top=0;left=0;bottom=0;right=0;fontStyle=1;" parent="j83zVd82UVNJNxqpEqZ9-439" vertex="1"><mxGeometry width="30" height="30" as="geometry"><mxRectangle width="30" height="30" as="alternateBounds"/></mxGeometry></mxCell><mxCell id="j83zVd82UVNJNxqpEqZ9-441" value="group_user_id BIGINT NOT NULL&#10;category_id INT NOT NULL" style="shape=partialRectangle;overflow=hidden;connectable=0;top=0;left=0;bottom=0;right=0;align=left;spacingLeft=6;fontStyle=1;" parent="j83zVd82UVNJNxqpEqZ9-439" vertex="1"><mxGeometry x="30" width="220" height="30" as="geometry"><mxRectangle width="220" height="30" as="alternateBounds"/></mxGeometry></mxCell><mxCell id="j83zVd82UVNJNxqpEqZ9-442" value="" style="edgeStyle=orthogonalEdgeStyle;endArrow=ERone;startArrow=ERoneToMany;endFill=0;startFill=0;exitX=0.5;exitY=1;exitDx=0;exitDy=0;entryX=0.5;entryY=0;entryDx=0;entryDy=0;" parent="1" source="j83zVd82UVNJNxqpEqZ9-438" target="j83zVd82UVNJNxqpEqZ9-373" edge="1"><mxGeometry width="100" height="100" relative="1" as="geometry"><mxPoint x="1330" y="-210" as="sourcePoint"/><mxPoint x="1420" y="-170.00000000000045" as="targetPoint"/></mxGeometry></mxCell><mxCell id="j83zVd82UVNJNxqpEqZ9-443" value="" style="edgeStyle=orthogonalEdgeStyle;endArrow=ERone;startArrow=ERoneToMany;endFill=0;startFill=0;exitX=0.5;exitY=0;exitDx=0;exitDy=0;" parent="1" source="j83zVd82UVNJNxqpEqZ9-438" target="j83zVd82UVNJNxqpEqZ9-93" edge="1"><mxGeometry width="100" height="100" relative="1" as="geometry"><mxPoint x="1585" y="-400" as="sourcePoint"/><mxPoint x="1635" y="-290" as="targetPoint"/></mxGeometry></mxCell><mxCell id="j83zVd82UVNJNxqpEqZ9-444" value="" style="edgeStyle=entityRelationEdgeStyle;endArrow=ERoneToMany;startArrow=ERone;endFill=0;startFill=0;exitX=0;exitY=0.5;exitDx=0;exitDy=0;entryX=1;entryY=0.5;entryDx=0;entryDy=0;" parent="1" source="j83zVd82UVNJNxqpEqZ9-286" target="j83zVd82UVNJNxqpEqZ9-153" edge="1"><mxGeometry width="100" height="100" relative="1" as="geometry"><mxPoint x="550" y="-185" as="sourcePoint"/><mxPoint x="460" y="-425" as="targetPoint"/></mxGeometry></mxCell></root></mxGraphModel></diagram></mxfile>